<?xml version="1.0" encoding="UTF-8" standalone="no"?>
<!-- Created with Inkscape (http://www.inkscape.org/) -->

<svg
   width="210mm"
   height="297mm"
   viewBox="0 0 210 297"
   version="1.1"
   id="svg361"
   inkscape:version="1.2.1 (9c6d41e410, 2022-07-14)"
   sodipodi:docname="рисунок3.svg"
   xmlns:inkscape="http://www.inkscape.org/namespaces/inkscape"
   xmlns:sodipodi="http://sodipodi.sourceforge.net/DTD/sodipodi-0.dtd"
   xmlns="http://www.w3.org/2000/svg"
   xmlns:svg="http://www.w3.org/2000/svg">
  <sodipodi:namedview
     id="namedview363"
     pagecolor="#505050"
     bordercolor="#eeeeee"
     borderopacity="1"
     inkscape:showpageshadow="0"
     inkscape:pageopacity="0"
     inkscape:pagecheckerboard="0"
     inkscape:deskcolor="#505050"
     inkscape:document-units="mm"
     showgrid="false"
     inkscape:zoom="2.9540685"
     inkscape:cx="367.12081"
     inkscape:cy="638.10301"
     inkscape:window-width="1920"
     inkscape:window-height="1009"
     inkscape:window-x="-8"
     inkscape:window-y="760"
     inkscape:window-maximized="1"
     inkscape:current-layer="layer1" />
  <defs
     id="defs358" />
  <g
     inkscape:label="Слой 1"
     inkscape:groupmode="layer"
     id="layer1">
    <path
       style="fill:#ffffff;stroke-width:0.565;stroke:#2dbd39;stroke-opacity:1;stroke-dasharray:none"
       d="m 74.779725,153.51907 29.700355,4.4301 -1.62229,11.73039 4.30531,0.49917 0.18718,1.3103 0.43677,0.74875 0.62396,0.49917 -0.12479,1.4351 -0.99833,0.24958 4.55489,0.43677 v 0.74875 l -0.31198,0.31198 0.0624,0.87354 -0.31198,0.18719 v 0.43677 l -0.74874,0.74874 0.87353,1.93427 1.4975,-0.24958 2.24625,2.12145 0.81114,-0.31198 0.0624,-1.4351 0.56156,-0.24958 0.62396,0.68635 0.24958,0.43677 -0.12479,0.93594 2.18385,-0.0624 0.93593,-1.93426 1.12312,-0.12479 1.37271,0.68635 0.68635,-0.18719 1.37271,0.56156 0.93593,-0.0624 -0.81114,0.68635 -0.74875,0.49916 -0.12479,0.24959 -0.12479,0.43677 -0.12479,0.87354 v 1.18552 l 0.31198,1.31031 v 1.49749 1.37271 l 0.24958,0.87354 v 0.81114 l -0.31198,0.37438 -0.81114,0.37437 -0.68636,0.31198 -0.87354,0.37437 -0.37437,0.37438 -0.31198,0.49916 -0.74875,0.93594 -0.31198,0.68635 -0.18718,0.99833 0.0624,0.87354 -1.06072,1.37271 -0.37438,0.74875 -0.12479,1.06072 -0.37437,0.62396 -0.99834,0.81115 -0.68635,0.87354 -0.99833,0.99833 -0.43677,0.31198 -1.12312,-0.18719 -0.49917,-0.37438 -0.12479,-0.81114 -0.49916,-1.06073 -0.56157,-1.12312 -0.49916,-0.81114 -0.68636,-0.31198 -1.3727,-0.31198 -0.37438,-0.12479 -0.68635,-1.18552 -0.68635,-0.87354 -1.31031,-0.62396 -0.56156,0.18719 -0.0624,-1.68469 -0.37437,-3.36936 -3.80614,0.31197 -2.183849,-3.99332 -0.623959,0.12479 -0.686353,0.43677 -0.68635,0.49917 -0.311981,0.31198 -0.436769,0.24958 -1.123122,-0.18719 -0.998331,-0.74875 -1.372706,-0.93593 -0.935937,-0.68635 -0.311978,-0.18719 1.62229,0.12479 0.06239,-2.43344 -2.683015,-3.61894 2.121453,-1.37271 -3.369368,-3.05739 0.686353,-2.68302 -0.249582,-0.49916 -0.87354,0.12479 -0.686353,0.37437 -0.87354,0.18719 -0.811144,0.81115 -1.934266,-3.49416 -12.541538,-1.37271 z"
       id="path529" />
  </g>
</svg>
