<?xml version="1.0" encoding="UTF-8" standalone="no"?>
<!-- Created with Inkscape (http://www.inkscape.org/) -->

<svg
   width="210mm"
   height="297mm"
   viewBox="0 0 210 297"
   version="1.1"
   id="svg357"
   inkscape:version="1.2.1 (9c6d41e410, 2022-07-14)"
   sodipodi:docname="рисунок14.svg"
   xmlns:inkscape="http://www.inkscape.org/namespaces/inkscape"
   xmlns:sodipodi="http://sodipodi.sourceforge.net/DTD/sodipodi-0.dtd"
   xmlns="http://www.w3.org/2000/svg"
   xmlns:svg="http://www.w3.org/2000/svg">
  <sodipodi:namedview
     id="namedview359"
     pagecolor="#505050"
     bordercolor="#eeeeee"
     borderopacity="1"
     inkscape:showpageshadow="0"
     inkscape:pageopacity="0"
     inkscape:pagecheckerboard="0"
     inkscape:deskcolor="#505050"
     inkscape:document-units="mm"
     showgrid="false"
     inkscape:zoom="0.73851712"
     inkscape:cx="396.74097"
     inkscape:cy="561.93687"
     inkscape:window-width="1920"
     inkscape:window-height="1009"
     inkscape:window-x="-8"
     inkscape:window-y="760"
     inkscape:window-maximized="1"
     inkscape:current-layer="layer1" />
  <defs
     id="defs354">
    <inkscape:path-effect
       effect="bspline"
       id="path-effect342"
       is_visible="true"
       lpeversion="1"
       weight="33.333333"
       steps="2"
       helper_size="0"
       apply_no_weight="true"
       apply_with_weight="true"
       only_selected="false" />
    <inkscape:path-effect
       effect="bspline"
       id="path-effect385"
       is_visible="true"
       lpeversion="1"
       weight="33.333333"
       steps="2"
       helper_size="0"
       apply_no_weight="true"
       apply_with_weight="true"
       only_selected="false" />
  </defs>
  <g
     inkscape:label="Слой 1"
     inkscape:groupmode="layer"
     id="layer1">
    <path
       style="fill:#ffffff;stroke:#2dbd39;stroke-width:0.564999"
       d="m 92.499622,178.57883 c 1.367489,-8.5949 4.102502,-25.78492 5.454474,-34.43187 1.351972,-8.64695 1.320773,-8.75094 1.180458,-8.7979 -0.140316,-0.047 -0.389896,-0.0366 -0.603042,-0.0677 -0.213145,-0.0311 -0.389946,-0.10392 -0.478499,-0.18184 -0.08855,-0.0779 -0.08855,-0.16113 -0.06257,-0.35875 0.02598,-0.19762 0.07798,-0.50958 0.270396,-0.81128 0.19242,-0.3017 0.525188,-0.59287 0.826752,-0.89443 0.301564,-0.30157 0.571941,-0.61354 0.811188,-0.81636 0.239251,-0.20282 0.447241,-0.29642 0.624101,-0.34319 0.17686,-0.0468 0.32245,-0.0468 0.61362,-0.0624 0.29118,-0.0156 0.72794,-0.0468 1.17505,-0.15602 0.44712,-0.10922 0.90468,-0.2964 1.3726,-0.59277 0.46792,-0.29637 0.94628,-0.70193 1.26067,-0.99963 0.3144,-0.2977 0.46487,-0.48758 0.51077,-0.65592 0.0459,-0.16834 -0.0129,-0.31539 -0.0791,-0.43307 -0.0661,-0.11768 -0.13965,-0.2059 -0.49262,-0.66916 -0.35298,-0.46327 -0.98536,-1.30155 -1.29433,-1.91926 -0.30896,-0.61771 -0.29426,-1.01478 0.0808,-2.93408 0.37501,-1.91931 1.11034,-5.36062 1.48553,-7.07392 0.37519,-1.7133 0.38989,-1.6986 0.77225,-1.70611 0.38236,-0.008 1.13239,-0.0369 1.66922,-0.0148 0.53682,0.0221 0.86037,0.0956 1.45601,0.21329 0.59563,0.11765 1.46331,0.27942 1.94853,0.52222 0.48523,0.24279 0.58817,0.56633 0.75731,1.08843 0.16913,0.5221 0.40443,1.24272 0.56623,1.69863 0.1618,0.45591 0.25004,0.6471 0.581,1.05888 0.33096,0.41177 0.90451,1.04415 1.63253,1.73536 0.72801,0.69122 1.6104,1.44125 2.06631,1.81615 0.45591,0.3749 0.48531,0.3749 0.57719,0.47064 0.0919,0.0957 0.2463,0.28693 0.37137,0.38607 0.12507,0.0991 0.22059,0.10652 0.38224,0.0109 0.16164,-0.0956 0.3896,-0.29415 0.69855,-0.40812 0.30896,-0.11397 0.69868,-0.14337 1.13621,-0.19117 0.43752,-0.0478 0.92283,-0.11398 1.27203,-0.22061 0.34921,-0.10663 0.56246,-0.25369 0.75359,-0.49629 0.19114,-0.24259 0.36026,-0.58084 0.40813,-0.86384 0.0479,-0.28301 -0.0256,-0.51096 -0.0808,-0.66906 -0.0551,-0.15811 -0.0919,-0.24634 0.0295,-0.28326 0.1214,-0.0369 0.40083,-0.0222 1.02588,0.0403 0.62506,0.0625 1.59569,0.17281 2.09198,0.24647 0.4963,0.0737 0.51839,0.11046 0.69115,0.79066 0.17275,0.68021 0.4963,2.00379 0.63961,2.70597 0.14332,0.70217 0.10657,0.78303 -0.0441,0.93002 -0.1507,0.147 -0.41542,0.36024 -0.58091,0.52206 -0.16548,0.16183 -0.23167,0.27214 -0.23524,0.38991 -0.004,0.11778 0.0552,0.24278 0.16195,0.3567 0.1067,0.11392 0.26112,0.21687 0.37501,0.35664 0.11389,0.13978 0.18742,0.31626 -0.16931,2.72449 -0.35673,2.40823 -1.14353,7.04814 -1.53692,9.42699 -0.39339,2.37885 -0.39339,2.49651 -0.31969,2.58468 0.0737,0.0882 0.22076,0.147 0.81637,0.19842 0.59562,0.0514 1.63978,0.0955 2.16574,0.12159 0.52595,0.0261 0.53295,0.0331 0.48134,0.72796 -0.0516,0.69491 -0.16191,2.07732 -0.2059,2.77956 -0.044,0.70225 -0.0219,0.72435 0.50759,0.83088 0.52948,0.10652 1.56629,0.29771 2.09578,0.39702 0.5295,0.0993 0.55148,0.10666 0.54397,0.61781 -0.008,0.51115 -0.0443,1.5259 -0.0515,2.04801 -0.007,0.52211 0.0148,0.55153 2.37169,0.93377 2.35684,0.38224 7.04822,1.11757 9.39031,1.48521 2.34209,0.36765 2.33459,0.36765 2.17267,1.64728 -0.16191,1.27963 -0.4781,3.83856 -0.86784,6.66965 -0.38974,2.8311 -0.85299,5.93417 -1.2942,8.90497 -0.44121,2.97081 -0.86034,5.80917 -1.09928,7.24662 -0.23894,1.43746 -0.29775,1.47422 -0.40058,1.47429 -0.10283,6e-5 -0.24991,-0.0367 -1.97063,-0.62866 -1.72072,-0.59194 -5.01498,-1.73905 -6.68431,-2.30534 -1.66932,-0.56629 -1.71342,-0.55159 -4.02981,0.58452 -2.31638,1.13612 -6.90481,3.39357 -9.79471,4.83117 -2.8899,1.4376 -4.08114,2.05527 -4.77973,2.4303 -0.69859,0.37503 -0.90448,0.50738 -1.05896,0.67659 -0.15448,0.1692 -0.25742,0.37509 -0.59569,1.37888 -0.33826,1.00379 -0.91182,2.80534 -1.21689,3.71337 -0.30508,0.90804 -0.34188,0.92275 -3.39718,0.5882 -3.0553,-0.33456 -9.129093,-1.01841 -12.280031,-1.37138 -3.150938,-0.35297 -3.378893,-0.37504 -3.525973,-0.38608 -0.147079,-0.0111 -0.213257,-0.0111 -0.265927,-0.0119 -0.05267,-8.3e-4 -0.09179,-0.002 -0.113973,-0.004 -0.02218,-0.002 -0.02741,-0.004 -0.03013,-0.005 -0.0027,-0.001 -0.0027,-0.001 1.364767,-8.59629 z"
       id="path383"
       inkscape:path-effect="#path-effect385"
       inkscape:original-d="m 91.132133,187.17373 c 2.735278,-17.18975 5.470288,-34.37977 8.205038,-51.57005 -0.0309,-0.10373 -0.0621,-0.20772 -0.0936,-0.31198 -0.24932,0.0107 -0.4989,0.0211 -0.74875,0.0312 -0.17652,-0.0725 -0.35331,-0.14533 -0.53036,-0.21839 2.7e-4,-0.0829 2.7e-4,-0.16612 0,-0.24958 0.0523,-0.31172 0.10426,-0.62369 0.15599,-0.93593 0.33305,-0.29093 0.66582,-0.5821 0.99833,-0.87354 0.27065,-0.31173 0.54103,-0.6237 0.81115,-0.93594 0.208249,-0.0933 0.416229,-0.18692 0.623949,-0.28078 0.14586,2.6e-4 0.29145,2.6e-4 0.43677,0 0.43705,-0.0309 0.87381,-0.0621 1.31031,-0.0936 0.45784,-0.18693 0.9154,-0.37411 1.37271,-0.56157 0.47864,-0.40531 0.957,-0.81087 1.4351,-1.21671 0.15074,-0.18962 0.30121,-0.3795 0.45142,-0.56964 -0.0586,-0.14681 -0.11739,-0.29387 -0.17648,-0.4412 -0.0733,-0.088 -0.1468,-0.17622 -0.2206,-0.26473 -0.63214,-0.83803 -1.26452,-1.67631 -1.89718,-2.51486 0.015,-0.39683 0.0297,-0.7939 0.0441,-1.19125 0.73562,-3.4412 1.47094,-6.88252 2.20602,-10.32418 0.015,0.015 0.0297,0.0297 0.0441,0.0441 0.75033,-0.0291 1.50036,-0.0586 2.25014,-0.0882 0.32382,0.0738 0.64737,0.14733 0.97065,0.2206 0.86799,0.16204 1.73567,0.32381 2.60311,0.48533 0.10321,0.32382 0.20616,0.64736 0.30884,0.97064 0.23558,0.72092 0.47088,1.44154 0.70593,2.16191 0.0885,0.19145 0.17674,0.38264 0.26472,0.57356 0.57384,0.63267 1.1474,1.26505 1.7207,1.89718 0.88269,0.75033 1.76508,1.50036 2.64722,2.25014 0.0297,2.7e-4 0.0591,2.7e-4 0.0882,0 0.15469,0.19146 0.30911,0.38264 0.46327,0.57357 0.0959,0.008 0.19145,0.015 0.28678,0.0221 0.22823,-0.19828 0.45618,-0.39682 0.68387,-0.59562 0.39,-0.0292 0.77972,-0.0586 1.16919,-0.0882 0.4856,-0.0659 0.97091,-0.1321 1.45597,-0.19855 0.21352,-0.1468 0.42677,-0.29387 0.63975,-0.4412 0.16939,-0.338 0.33852,-0.67625 0.50738,-1.01477 -0.0733,-0.22769 -0.1468,-0.45565 -0.2206,-0.68387 -0.0365,-0.088 -0.0733,-0.17621 -0.1103,-0.26472 0.2797,0.015 0.55912,0.0297 0.83829,0.0441 0.97093,0.11057 1.94156,0.22087 2.91195,0.3309 0.0223,0.037 0.0444,0.0738 0.0662,0.11031 0.32382,1.3239 0.64736,2.64749 0.97065,3.97083 -0.0365,0.0812 -0.0733,0.16204 -0.1103,0.24267 -0.26447,0.21352 -0.52919,0.42676 -0.79417,0.63974 -0.0659,0.11057 -0.1321,0.22087 -0.19854,0.33091 0.0591,0.12527 0.11792,0.25028 0.17648,0.37502 0.15469,0.10321 0.30911,0.20616 0.46326,0.30884 0.0738,0.17675 0.14734,0.35323 0.2206,0.52945 -0.78656,4.64035 -1.57336,9.28026 -2.36044,13.91999 2.7e-4,0.11792 2.7e-4,0.23558 0,0.35297 0.14734,0.0591 0.2944,0.11792 0.44121,0.17648 1.04447,0.0444 2.08863,0.0885 3.13255,0.13236 0.008,0.008 0.015,0.015 0.0221,0.0221 -0.11004,1.38274 -0.22034,2.76515 -0.3309,4.14732 0.0223,0.0223 0.0444,0.0444 0.0662,0.0662 1.03712,0.19146 2.07393,0.38265 3.11049,0.57357 0.0223,0.008 0.0444,0.015 0.0662,0.0221 -0.0365,1.01505 -0.0733,2.0298 -0.1103,3.04431 0.0223,0.0297 0.0444,0.0591 0.0662,0.0882 4.69183,0.73562 9.38321,1.47094 14.07442,2.20602 -0.007,2.6e-4 -0.0145,2.6e-4 -0.0221,0 -0.31594,2.5593 -0.63213,5.11823 -0.94859,7.67695 -0.46301,3.10347 -0.92626,6.20654 -1.38979,9.30941 -0.41889,2.83874 -0.83803,5.6771 -1.25743,8.51524 -0.0586,0.037 -0.11739,0.0738 -0.17649,0.11031 -0.1468,-0.0365 -0.29387,-0.0733 -0.4412,-0.11031 -3.29413,-1.14688 -6.58839,-2.29399 -9.88297,-3.44139 -0.0439,0.015 -0.088,0.0297 -0.13237,0.0441 -4.58835,2.25781 -9.17678,4.51526 -13.76557,6.77249 -1.19101,0.61796 -2.38224,1.23564 -3.57376,1.85306 -0.20563,0.13262 -0.41152,0.26498 -0.61768,0.39708 -0.10269,0.20616 -0.20563,0.41205 -0.30884,0.61769 -0.57332,1.80188 -1.14687,3.60343 -1.7207,5.40475 -0.0365,0.015 -0.0733,0.0297 -0.1103,0.0441 -6.07377,-0.68362 -12.147559,-1.36747 -18.221737,-2.0516 -0.227695,-0.0218 -0.455647,-0.0439 -0.683866,-0.0662 -0.06592,2.6e-4 -0.132098,2.6e-4 -0.198543,0 -0.03888,-0.002 -0.07803,-0.003 -0.117441,-0.005 -0.0049,-0.002 -0.01013,-0.004 -0.01561,-0.006 z" />
  </g>
</svg>
