<?xml version="1.0" encoding="UTF-8" standalone="no"?>
<!-- Created with Inkscape (http://www.inkscape.org/) -->

<svg
   width="210mm"
   height="297mm"
   viewBox="0 0 210 297"
   version="1.1"
   id="svg357"
   inkscape:version="1.2.1 (9c6d41e410, 2022-07-14)"
   sodipodi:docname="рисунокк8.svg"
   xmlns:inkscape="http://www.inkscape.org/namespaces/inkscape"
   xmlns:sodipodi="http://sodipodi.sourceforge.net/DTD/sodipodi-0.dtd"
   xmlns="http://www.w3.org/2000/svg"
   xmlns:svg="http://www.w3.org/2000/svg">
  <sodipodi:namedview
     id="namedview359"
     pagecolor="#505050"
     bordercolor="#eeeeee"
     borderopacity="1"
     inkscape:showpageshadow="0"
     inkscape:pageopacity="0"
     inkscape:pagecheckerboard="0"
     inkscape:deskcolor="#505050"
     inkscape:document-units="mm"
     showgrid="false"
     inkscape:zoom="0.73851712"
     inkscape:cx="396.74097"
     inkscape:cy="561.93687"
     inkscape:window-width="1920"
     inkscape:window-height="1009"
     inkscape:window-x="-8"
     inkscape:window-y="760"
     inkscape:window-maximized="1"
     inkscape:current-layer="layer1" />
  <defs
     id="defs354">
    <inkscape:path-effect
       effect="bspline"
       id="path-effect342"
       is_visible="true"
       lpeversion="1"
       weight="33.333333"
       steps="2"
       helper_size="0"
       apply_no_weight="true"
       apply_with_weight="true"
       only_selected="false" />
  </defs>
  <g
     inkscape:label="Слой 1"
     inkscape:groupmode="layer"
     id="layer1">
    <path
       style="fill:#ffffff;stroke:#2dbd39;stroke-width:0.564999"
       d="m 117.67729,132.96899 c 0.94126,-0.61035 2.82373,-1.83102 3.78698,-2.55154 0.96324,-0.72051 1.00736,-0.9411 1.11154,-1.5735 0.10419,-0.6324 0.26842,-1.67656 0.39296,-2.22789 0.12455,-0.55134 0.20934,-0.60958 0.43897,-0.70631 0.22963,-0.0967 0.60398,-0.2319 0.83012,-0.32809 0.22614,-0.0962 0.30413,-0.15338 0.38467,-0.31448 0.0806,-0.16109 0.16374,-0.42626 0.24175,-0.81101 0.078,-0.38475 0.15079,-0.8891 0.2184,-1.46626 0.0676,-0.57716 0.12999,-1.2271 0.26017,-1.67306 0.13017,-0.44597 0.32812,-0.68772 0.69184,-1.08437 0.36371,-0.39666 0.89314,-0.94815 1.26448,-1.34523 0.37135,-0.39708 0.58459,-0.63974 0.71327,-0.91172 0.12868,-0.27198 0.1728,-0.57345 0.23161,-0.83086 0.0588,-0.25741 0.13235,-0.47065 0.27211,-0.65997 0.13976,-0.18932 0.34565,-0.35454 0.52585,-0.47588 0.1802,-0.12135 0.33461,-0.19879 0.95606,-0.24118 0.62146,-0.0424 1.70974,-0.0498 2.26108,-0.0791 0.55135,-0.0293 0.56605,-0.0808 0.55145,-0.15059 -0.0146,-0.0698 -0.0587,-0.15804 -0.12122,-0.26833 -0.0625,-0.1103 -0.14337,-0.24267 -0.24628,-0.3677 -0.10291,-0.12504 -0.22791,-0.24269 -0.33454,-0.3493 -0.10664,-0.10661 -0.19488,-0.20221 -0.3162,-0.25748 -0.12131,-0.0553 -0.27573,-0.07 -0.44854,-0.092 -0.17281,-0.022 -0.364,-0.0514 -0.56254,-0.0772 -0.19853,-0.0257 -0.40443,-0.0478 -0.56987,-0.0772 -0.16544,-0.0294 -0.29045,-0.0662 -0.48171,-0.31606 -0.19126,-0.24991 -0.44862,-0.71317 -0.65817,-1.05144 -0.20955,-0.33827 -0.37132,-0.55151 -0.51099,-0.69862 -0.13967,-0.1471 -0.25733,-0.22799 -0.37866,-0.29421 -0.12132,-0.0662 -0.24633,-0.1177 -0.41182,-0.13616 -0.16549,-0.0185 -0.37138,-0.004 -0.52218,0.0293 -0.1508,0.0331 -0.24644,0.0846 -0.33474,0.17286 -0.0883,0.0883 -0.1692,0.21331 -0.24274,0.36409 -0.0735,0.15079 -0.13972,0.32727 -0.23164,0.56258 -0.0919,0.2353 -0.20957,0.52943 -0.30453,0.75599 -0.095,0.22657 -0.16976,0.39112 -0.2543,0.5271 -0.0845,0.13598 -0.18015,0.24629 -0.32716,0.3492 -0.14702,0.10292 -0.34554,0.1985 -0.57351,0.31616 -0.22796,0.11766 -0.48533,0.25738 -0.77947,0.41547 -0.29413,0.1581 -0.62503,0.33458 -0.82977,0.49103 -0.20474,0.15646 -0.28316,0.29272 -0.37508,0.506 -0.0919,0.21328 -0.19733,0.5035 -0.27944,0.8472 -0.0821,0.34369 -0.14094,0.74076 -0.24389,1.08264 -0.10296,0.34188 -0.25003,0.62866 -0.93758,1.70396 -0.68755,1.07531 -1.91554,2.9391 -2.55896,3.9171 -0.64342,0.978 -0.70226,1.07018 -0.83819,1.1493 -0.13592,0.0791 -0.34918,0.1453 -0.64331,0.22987 -0.29414,0.0846 -0.66915,0.18751 -1.23166,0.26474 -0.56251,0.0772 -1.31255,0.1287 -2.04419,0.0846 -0.73164,-0.0441 -1.4449,-0.1838 -2.08833,-0.4264 -0.64342,-0.24261 -1.21697,-0.58821 -1.59937,-0.8529 -0.38241,-0.26468 -0.57359,-0.44852 -0.80888,-0.58464 -0.23529,-0.13611 -0.51472,-0.22435 -0.77945,-0.2832 -0.26473,-0.0589 -0.51475,-0.0883 -0.83469,-0.0368 -0.31995,0.0514 -0.70967,0.1838 -1.037,0.46697 -0.32733,0.28317 -0.59205,0.71702 -0.77589,1.09945 -0.18384,0.38242 -0.28678,0.71331 -0.40444,1.09202 -0.11765,0.3787 -0.25001,0.80519 -0.35295,1.0625 -0.10294,0.25731 -0.17646,0.34553 -0.19483,0.71333 -0.0184,0.3678 0.0184,1.01489 0.0221,1.69876 0.004,0.68386 -0.0257,1.40448 -0.0846,1.85818 -0.0588,0.45371 -0.14708,0.64059 -0.30144,0.80597 -0.15437,0.16537 -0.37497,0.30938 -0.6139,0.41447 -0.23893,0.10509 -0.49629,0.17126 -0.75361,0.18969 -0.25732,0.0184 -0.51468,-0.011 -0.80881,-0.0808 -0.29414,-0.0698 -0.62504,-0.18012 -0.94126,-0.30725 -0.31622,-0.12713 -0.61775,-0.27113 -0.90892,-0.42891 -0.29116,-0.15777 -0.57194,-0.32935 -0.82153,-0.49833 -0.249592,-0.16897 -0.467975,-0.33536 -0.647361,-0.47055 -0.179386,-0.13519 -0.319773,-0.23919 -0.4031,-0.41074 -0.08333,-0.17156 -0.109324,-0.41073 -0.140481,-0.58231 -0.03116,-0.17158 -0.06756,-0.27557 -0.179266,-0.41079 -0.111712,-0.13523 -0.298893,-0.30162 -0.467872,-0.39531 -0.16898,-0.0937 -0.319766,-0.1145 -0.457627,-0.10674 -0.137861,0.008 -0.262651,0.0442 -0.395297,0.10655 -0.132647,0.0624 -0.273016,0.15078 -0.436801,0.24438 -0.163786,0.0936 -0.350953,0.19237 -0.517367,0.29378 -0.166414,0.1014 -0.312,0.20539 -0.514713,0.28079 -0.202712,0.0754 -0.46269,0.12219 -0.735642,0.1456 -0.272953,0.0234 -0.558928,0.0234 -0.772199,0.0572 -0.213271,0.0338 -0.353644,0.10136 -0.54085,0.20536 -0.187206,0.104 -0.421182,0.24438 -0.670735,0.35877 -0.249553,0.1144 -0.514716,0.20278 -0.704499,0.26258 -0.189783,0.0598 -0.304171,0.091 -0.899494,0.10663 -0.595324,0.0156 -1.671627,0.0156 -2.303214,-0.0675 -0.631586,-0.0831 -0.818437,-0.24946 -1.003042,-0.43403 -0.184605,-0.18458 -0.366919,-0.38736 -0.507537,-0.61093 -0.140618,-0.22356 -0.23941,-0.46794 -0.262891,-0.71759 -0.02348,-0.24964 0.02851,-0.50441 0.116908,-0.73327 0.08839,-0.22885 0.213182,-0.43163 0.356179,-0.63963 0.142997,-0.20801 0.304186,-0.42119 0.422446,-0.58237 0.11826,-0.16119 0.1936,-0.27038 0.231287,-0.41326 0.03769,-0.14289 0.03769,-0.31967 0.0079,-0.48343 -0.02981,-0.16377 -0.08954,-0.31456 -0.153212,-0.47575 -0.06367,-0.16119 -0.131264,-0.33278 -0.217,-0.47839 -0.08573,-0.1456 -0.189725,-0.26519 -0.335276,-0.36147 -0.14555,-0.0963 -0.332742,-0.16906 -0.54333,-0.23668 -0.210587,-0.0676 -0.444575,-0.13001 -0.688984,-0.16125 -0.244409,-0.0312 -0.499187,-0.0312 -0.722841,0.005 -0.223654,0.0364 -0.416023,0.10917 -0.538314,0.22107 -0.122291,0.1119 -0.174284,0.26268 -0.273079,0.48104 -0.09879,0.21837 -0.24438,0.50434 -0.387361,0.74089 -0.142981,0.23656 -0.283372,0.42375 -0.541672,0.67775 -0.2583,0.25399 -0.634548,0.57485 -0.969712,0.81616 -0.335165,0.24131 -0.629298,0.40308 -0.996896,0.49868 -0.367597,0.0956 -0.808793,0.125 -1.095603,0.15439 -0.286811,0.0294 -0.419172,0.0588 -0.625056,0.0956 -0.205883,0.0368 -0.485304,0.0809 -0.69125,0.13235 -0.205946,0.0515 -0.338301,0.1103 -0.433985,0.21805 -0.09568,0.10775 -0.154511,0.26423 -0.192362,0.42824 -0.03785,0.164 -0.05476,0.33543 -0.04755,0.4706 0.0072,0.13518 0.0384,0.23394 0.0983,0.31449 0.05991,0.0805 0.148277,0.14293 0.200146,0.22877 0.05187,0.0858 0.06747,0.19502 0.08826,0.35101 0.0208,0.15599 0.04679,0.35877 0.05977,0.54854 0.01298,0.18978 0.01298,0.36657 0.0078,0.54595 -0.0052,0.17938 -0.01561,0.36136 -0.05722,0.51467 -0.04161,0.15331 -0.114408,0.2781 -0.223557,0.39504 -0.109149,0.11693 -0.254735,0.22612 -0.478289,0.3535 -0.223554,0.12739 -0.525128,0.27297 -0.772112,0.38736 -0.246983,0.1144 -0.439354,0.19759 -0.585025,0.30683 -0.145671,0.10925 -0.244459,0.24443 -0.302385,0.35411 -0.05792,0.10967 -0.08247,0.23062 -0.09285,0.32945 -0.01038,0.0988 -0.01038,0.19393 4.3e-5,0.3091 0.01042,0.11516 0.03122,0.25035 0.05463,0.37515 0.02341,0.12481 0.04941,0.23919 0.0728,0.36398 0.02339,0.12478 0.04418,0.25997 0.104108,0.36915 0.05993,0.10917 0.158698,0.19235 0.314678,0.23382 0.15598,0.0415 0.369163,0.0415 0.958571,0.0983 0.589407,0.0568 1.554972,0.17035 2.063333,0.2456 0.508362,0.0752 0.559525,0.11202 0.655005,0.42827 0.09548,0.31625 0.23552,0.91186 0.397464,1.57367 0.161944,0.66182 0.345775,1.38979 0.42292,1.7831 0.07714,0.39331 0.04773,0.45213 -0.139737,0.61752 -0.18747,0.16538 -0.533074,0.43745 -0.705897,0.5957 -0.172823,0.15825 -0.172823,0.20235 -0.03665,0.36781 0.136168,0.16547 0.40824,0.45225 0.536793,0.85668 0.128553,0.40443 0.113847,0.92651 -0.103098,2.3163 -0.216945,1.38979 -0.636082,3.64725 -1.022138,5.81653 -0.386055,2.16928 -0.739011,4.25025 -0.911777,5.32021 -0.172767,1.06997 -0.165411,1.12879 0.448731,1.1838 0.614141,0.055 1.834782,0.10648 2.433918,0.1617 0.599137,0.0552 0.577081,0.11404 0.514594,0.79061 -0.06249,0.67658 -0.165433,1.97076 -0.20578,2.63626 -0.04035,0.66551 -0.01828,0.70229 0.52227,0.82718 0.540545,0.12489 1.599414,0.33813 2.1361,0.4706 0.536685,0.13248 0.551401,0.18398 0.529288,0.70605 -0.02211,0.52206 -0.08094,1.51475 -0.102906,2.02586 -0.02197,0.51111 -0.0073,0.54051 2.345938,0.90067 2.353198,0.36017 7.044575,1.05137 9.379306,1.39334 2.334727,0.34196 2.312627,0.33458 2.967067,0.33453 0.65443,-5e-5 1.98538,0.007 2.6654,-0.0294 0.68002,-0.0367 0.70943,-0.11759 0.73519,-1.32718 0.0258,-1.2096 0.0478,-3.54794 0.0333,-4.74286 -0.0146,-1.19492 -0.0661,-1.2464 -0.30506,-1.54789 -0.23901,-0.30148 -0.6655,-0.85297 -0.86419,-1.1619 -0.19869,-0.30893 -0.16929,-0.37512 -0.0652,-0.48182 0.10407,-0.10669 0.28272,-0.25375 0.56953,-0.44128 0.28682,-0.18753 0.68172,-0.41548 0.89749,-0.59552 0.21577,-0.18004 0.25254,-0.31241 0.44741,-0.91908 0.19487,-0.60667 0.54782,-1.6876 0.73902,-2.35674 0.19119,-0.66913 0.22059,-0.92649 0.20226,-1.16728 -0.0183,-0.2408 -0.0845,-0.4651 -0.17641,-0.73718 -0.0919,-0.27208 -0.20957,-0.59192 -0.35289,-0.84011 -0.14332,-0.24819 -0.31244,-0.42467 -0.46685,-0.55707 -0.1544,-0.13241 -0.2941,-0.22063 -0.38604,-0.27581 -0.0919,-0.0552 -0.13604,-0.0772 -0.17293,-0.18748 -0.0369,-0.11024 -0.0663,-0.30878 -0.0626,-0.52574 0.004,-0.21696 0.0404,-0.45227 0.13973,-0.6252 0.0993,-0.17293 0.26109,-0.28324 0.46706,-0.36413 0.20597,-0.0809 0.45598,-0.13236 0.68759,-0.19119 0.23162,-0.0588 0.44487,-0.12501 0.65817,-0.15808 0.2133,-0.0331 0.42654,-0.0331 0.62512,9e-5 0.19858,0.0332 0.3824,0.0993 0.57726,0.19128 0.19487,0.0919 0.40076,0.2096 0.49619,0.4045 0.0954,0.1949 0.0807,0.46698 0.0805,0.72438 -2e-4,0.2574 0.0149,0.51474 0.026,0.70226 0.011,0.18753 0.0184,0.3125 0.16929,0.39327 0.15088,0.0808 0.44502,0.11754 0.67666,0.15063 0.23164,0.0331 0.40077,0.0625 0.54411,0.0661 0.14334,0.004 0.261,-0.0184 0.3234,-0.0808 0.0624,-0.0624 0.0698,-0.16531 0.12859,-0.77933 0.0588,-0.61402 0.16913,-1.73907 0.36031,-3.34949 0.19119,-1.61043 0.46326,-3.70611 0.67651,-5.3496 0.21325,-1.6435 0.36767,-2.83473 0.4559,-3.4488 0.0882,-0.61407 0.11032,-0.65088 0.18389,-0.7171 0.0736,-0.0662 0.19859,-0.16183 1.07368,-0.71335 0.87509,-0.55152 2.50016,-1.55892 3.31267,-2.0626 0.81251,-0.50368 0.81251,-0.50355 1.75378,-1.1139 z"
       id="path340"
       inkscape:path-effect="#path-effect342"
       inkscape:original-d="m 116.73602,133.57934 c 1.88273,-1.2204 3.7652,-2.44106 5.64741,-3.66199 0.0444,-0.22035 0.0885,-0.44094 0.13236,-0.66181 0.16451,-1.04394 0.32874,-2.0881 0.49271,-3.13255 0.085,-0.058 0.16982,-0.11621 0.25433,-0.17471 0.37465,-0.13493 0.74901,-0.27011 1.12312,-0.40557 0.0783,-0.0569 0.15626,-0.11413 0.23398,-0.17159 0.0835,-0.26492 0.16666,-0.5301 0.24959,-0.79554 0.0731,-0.50411 0.14585,-1.00847 0.21838,-1.5131 0.0627,-0.6497 0.12506,-1.29964 0.18719,-1.94986 0.19822,-0.2415 0.39617,-0.48326 0.59386,-0.72528 0.52972,-0.55126 1.05915,-1.10275 1.58833,-1.65452 0.21352,-0.2424 0.42676,-0.48506 0.63975,-0.72799 0.0444,-0.30123 0.0885,-0.60271 0.13236,-0.90447 0.0738,-0.21299 0.14733,-0.42623 0.2206,-0.63974 0.20616,-0.16496 0.41205,-0.33017 0.61769,-0.49565 0.15468,-0.0772 0.3091,-0.15463 0.46326,-0.23234 1.08859,-0.007 2.17687,-0.0144 3.26491,-0.0221 0.015,-0.0512 0.0297,-0.10268 0.0441,-0.15442 -0.0438,-0.088 -0.088,-0.17622 -0.13236,-0.26473 -0.0806,-0.13209 -0.16151,-0.26445 -0.24266,-0.39708 -0.12475,-0.11739 -0.24975,-0.23504 -0.37502,-0.35296 -0.088,-0.0953 -0.17622,-0.19092 -0.26473,-0.28678 -0.15416,-0.0144 -0.30858,-0.0291 -0.46326,-0.0441 -0.19093,-0.0292 -0.38212,-0.0586 -0.57357,-0.0882 -0.20563,-0.0218 -0.41152,-0.0439 -0.61768,-0.0662 -0.12475,-0.0365 -0.24975,-0.0733 -0.37503,-0.1103 -0.25711,-0.46301 -0.51447,-0.92627 -0.7721,-1.3898 -0.16152,-0.21299 -0.32329,-0.42623 -0.48533,-0.63974 -0.11739,-0.0806 -0.23504,-0.16151 -0.35296,-0.24266 -0.12475,-0.0512 -0.24975,-0.10269 -0.37503,-0.15443 -0.20563,0.015 -0.41152,0.0297 -0.61768,0.0441 -0.0953,0.0517 -0.19093,0.10322 -0.28678,0.15443 -0.0806,0.12527 -0.16152,0.25028 -0.24267,0.37502 -0.0659,0.17675 -0.13209,0.35323 -0.19854,0.52945 -0.11739,0.2944 -0.23504,0.58853 -0.35296,0.8824 -0.0659,0.16205 -0.14681,0.32382 -0.2206,0.48533 -0.0953,0.11057 -0.19093,0.22086 -0.28679,0.3309 -0.19828,0.0959 -0.39682,0.19145 -0.59562,0.28678 -0.25711,0.13999 -0.51448,0.2797 -0.77211,0.41915 -0.33064,0.17675 -0.66154,0.35322 -0.99271,0.52944 -0.0782,0.13654 -0.15659,0.27282 -0.23528,0.40883 -0.10514,0.29049 -0.21055,0.58071 -0.31623,0.87067 -0.0586,0.39735 -0.11738,0.79443 -0.17648,1.19125 -0.1468,0.28705 -0.29387,0.57383 -0.4412,0.86035 -1.22778,1.86413 -2.45577,3.72792 -3.68406,5.59149 -0.0586,0.0924 -0.11739,0.18461 -0.17648,0.27652 -0.21299,0.0664 -0.42623,0.13263 -0.63974,0.19854 -0.37477,0.10322 -0.74979,0.20616 -1.12508,0.30885 -0.74979,0.0517 -1.49983,0.10321 -2.25014,0.15442 -0.71303,-0.13945 -1.42629,-0.27917 -2.13984,-0.41915 -0.57331,-0.34535 -1.14686,-0.69095 -1.7207,-1.03683 -0.19092,-0.18357 -0.38211,-0.3674 -0.57356,-0.5515 -0.27917,-0.088 -0.5586,-0.17622 -0.83829,-0.26472 -0.24975,-0.0291 -0.49976,-0.0586 -0.75004,-0.0882 -0.38948,0.13263 -0.7792,0.26498 -1.1692,0.39708 -0.26446,0.43412 -0.52918,0.86797 -0.79416,1.30155 -0.10269,0.33118 -0.20564,0.66207 -0.30885,0.99271 -0.1321,0.42677 -0.26446,0.85326 -0.39708,1.2795 -0.0733,0.0885 -0.1468,0.17674 -0.22061,0.26472 0.037,0.64737 0.0738,1.29446 0.11031,1.9413 -0.0292,0.72091 -0.0586,1.44153 -0.0882,2.1619 -0.088,0.18717 -0.17622,0.37406 -0.26473,0.5607 -0.22034,0.14427 -0.44094,0.28827 -0.6618,0.43201 -0.25711,0.0665 -0.51448,0.13262 -0.77211,0.19854 -0.25711,-0.0292 -0.51447,-0.0586 -0.77211,-0.0882 -0.33066,-0.11004 -0.66156,-0.22034 -0.99273,-0.33091 -0.30127,-0.14374 -0.6028,-0.28774 -0.9046,-0.432 -0.28053,-0.17133 -0.5613,-0.34291 -0.84235,-0.51476 -0.218121,-0.16613 -0.436503,-0.33252 -0.655152,-0.49917 -0.140128,-0.10373 -0.280516,-0.20772 -0.421171,-0.31198 -0.02574,-0.23892 -0.05173,-0.4781 -0.07799,-0.71755 -0.03613,-0.10373 -0.07253,-0.20772 -0.109194,-0.31198 -0.186925,-0.16613 -0.374107,-0.33251 -0.561559,-0.49916 -0.15053,-0.0205 -0.301316,-0.0413 -0.452369,-0.0624 -0.124531,0.0367 -0.24932,0.0731 -0.374375,0.10919 -0.140128,0.0887 -0.280516,0.17705 -0.421172,0.26518 -0.186925,0.0991 -0.37411,0.19785 -0.561562,0.29638 -0.145327,0.10426 -0.290914,0.20825 -0.436769,0.31198 -0.259723,0.0471 -0.5197,0.0939 -0.779946,0.14039 -0.285721,2.6e-4 -0.571696,2.6e-4 -0.857941,0 -0.140129,0.0679 -0.280516,0.13546 -0.421172,0.20279 -0.233722,0.14066 -0.467701,0.28104 -0.70195,0.42117 -0.264924,0.0887 -0.5301,0.17705 -0.795546,0.26518 -0.114131,0.0315 -0.228518,0.0627 -0.343175,0.0936 -1.076085,2.6e-4 -2.152388,2.6e-4 -3.228978,0 -0.186597,-0.16613 -0.373451,-0.33251 -0.560575,-0.49917 -0.182055,-0.20252 -0.364369,-0.4053 -0.54695,-0.60835 -0.09853,-0.24413 -0.197321,-0.48851 -0.296381,-0.73315 0.05226,-0.25453 0.104259,-0.5093 0.155991,-0.76435 0.125058,-0.20253 0.249848,-0.40531 0.374375,-0.60836 0.161456,-0.21292 0.32264,-0.42611 0.483565,-0.63956 0.0756,-0.10893 0.150942,-0.21812 0.226015,-0.32757 2.65e-4,-0.17653 2.65e-4,-0.35331 0,-0.53037 -0.05948,-0.15052 -0.119213,-0.30131 -0.179218,-0.45237 -0.06733,-0.17132 -0.134927,-0.34291 -0.202784,-0.51476 -0.103733,-0.11933 -0.207722,-0.23892 -0.311981,-0.35878 -0.186926,-0.0725 -0.374108,-0.14532 -0.56156,-0.21838 -0.233725,-0.0621 -0.467704,-0.12453 -0.701953,-0.18719 -0.254521,2.7e-4 -0.509299,2.7e-4 -0.764346,0 -0.192128,0.0731 -0.384509,0.14586 -0.57716,0.21839 -0.05173,0.15106 -0.10373,0.30184 -0.15599,0.45237 -0.145328,0.28625 -0.290915,0.57222 -0.436769,0.85794 -0.140129,0.18745 -0.280517,0.37464 -0.421172,0.56156 -0.375999,0.32114 -0.752247,0.642 -1.128768,0.9626 -0.293878,0.16204 -0.588007,0.32382 -0.882409,0.48532 -0.440949,0.0297 -0.882145,0.0591 -1.323613,0.0882 -0.132098,0.0297 -0.264459,0.0591 -0.397084,0.0882 -0.279169,0.0444 -0.558593,0.0885 -0.838287,0.13236 -0.132101,0.0591 -0.264459,0.11792 -0.397084,0.17649 -0.05857,0.15674 -0.11739,0.31322 -0.176482,0.46943 -0.01664,0.17171 -0.03355,0.34314 -0.05072,0.51431 0.03146,0.0991 0.06266,0.19786 0.09359,0.29639 0.08866,0.0627 0.177051,0.12505 0.265181,0.18718 0.01587,0.10946 0.03146,0.21865 0.0468,0.32758 0.02627,0.20305 0.05226,0.40583 0.07799,0.60836 2.65e-4,0.17705 2.65e-4,0.35384 0,0.53036 -0.01013,0.18226 -0.02053,0.36424 -0.0312,0.54596 -0.07253,0.12506 -0.145325,0.24985 -0.218384,0.37438 -0.145328,0.10946 -0.290915,0.21865 -0.436772,0.32758 -0.301321,0.14585 -0.602893,0.29144 -0.904737,0.43676 -0.192125,0.0835 -0.384509,0.16666 -0.57716,0.24959 -0.09853,0.13546 -0.197321,0.27064 -0.296381,0.40557 -0.02053,0.0835 -0.04133,0.20521 -0.06239,0.30742 2.65e-4,0.0954 2.65e-4,0.19049 0,0.28534 0.02106,0.13545 0.04186,0.27064 0.06239,0.40557 0.02627,0.11466 0.05226,0.22905 0.078,0.34317 0.02106,0.13546 0.04186,0.27065 0.06239,0.40558 0.09906,0.0835 0.197853,0.16665 0.296381,0.24958 0.213452,2.6e-4 0.426635,2.6e-4 0.639556,0 0.965867,0.11382 1.931432,0.22737 2.896751,0.34066 0.05141,0.037 0.102558,0.0738 0.153437,0.1103 0.140311,0.5959 0.28035,1.19151 0.420129,1.78688 0.184103,0.72826 0.367935,1.45623 0.551506,2.18396 -0.02915,0.0591 -0.05856,0.11792 -0.08824,0.17648 -0.345353,0.27234 -0.690955,0.54441 -1.036831,0.81622 2.64e-4,0.0444 2.64e-4,0.0885 0,0.13237 0.272346,0.28705 0.544417,0.57383 0.816229,0.86035 -0.01445,0.52236 -0.02915,1.04444 -0.04412,1.56627 -0.418886,2.2578 -0.838023,4.51526 -1.257432,6.77249 -0.352706,2.08132 -0.705663,4.16229 -1.058889,6.24304 0.0076,0.0591 0.01498,0.11792 0.02207,0.17648 1.220954,0.0517 2.441593,0.10321 3.661995,0.15442 -0.0218,0.0591 -0.04385,0.11792 -0.06618,0.17648 -0.102684,1.29449 -0.205631,2.58867 -0.308842,3.8826 0.02233,0.037 0.04438,0.0738 0.06618,0.1103 1.059175,0.21352 2.118045,0.42676 3.176669,0.63975 0.01498,0.0517 0.02968,0.10321 0.04412,0.15442 -0.05856,0.99299 -0.11739,1.98568 -0.176482,2.97813 0.01497,0.0297 0.02968,0.0591 0.04412,0.0882 4.691829,0.6915 9.383207,1.3827 14.074417,2.07366 -0.0218,-0.007 -0.0439,-0.0144 -0.0662,-0.0221 1.33125,0.008 2.6622,0.015 3.9929,0.0221 0.0297,-0.0806 0.0591,-0.16151 0.0882,-0.24266 0.0223,-2.33817 0.0444,-4.67651 0.0662,-7.01515 -0.0512,-0.0512 -0.10268,-0.10269 -0.15442,-0.15442 -0.42624,-0.55126 -0.85273,-1.10275 -1.2795,-1.65452 0.0297,-0.0659 0.0591,-0.1321 0.0882,-0.19854 0.17893,-0.14681 0.35758,-0.29387 0.53597,-0.44121 0.39518,-0.22769 0.79008,-0.45564 1.18472,-0.68386 0.037,-0.1321 0.0738,-0.26446 0.11031,-0.39709 0.35323,-1.0807 0.70619,-2.16163 1.05889,-3.24285 0.0297,-0.25711 0.0591,-0.51447 0.0882,-0.77211 -0.0659,-0.22404 -0.1321,-0.44834 -0.19854,-0.67292 -0.1174,-0.31958 -0.23505,-0.63942 -0.35297,-0.95953 -0.16887,-0.17622 -0.33799,-0.3527 -0.50738,-0.52945 -0.13946,-0.088 -0.27917,-0.17621 -0.41915,-0.26472 -0.0439,-0.0218 -0.088,-0.0439 -0.13236,-0.0662 -0.0292,-0.19828 -0.0586,-0.39682 -0.0882,-0.59563 0.037,-0.23505 0.0738,-0.47035 0.1103,-0.70592 0.16204,-0.11004 0.32382,-0.22034 0.48533,-0.33091 0.25028,-0.0512 0.50029,-0.10268 0.75004,-0.15442 0.21352,-0.0659 0.42677,-0.13209 0.63975,-0.19854 0.21352,2.6e-4 0.42676,2.6e-4 0.63975,0 0.1841,0.0665 0.36793,0.13263 0.5515,0.19854 0.20617,0.11793 0.41206,0.23558 0.61769,0.35297 -0.0144,0.27234 -0.0292,0.54441 -0.0441,0.81622 0.015,0.24294 0.0297,0.5003 0.0441,0.75005 0.008,0.12528 0.015,0.25028 0.0221,0.37503 0.2944,0.037 0.58853,0.0738 0.8824,0.1103 0.1694,0.0297 0.33853,0.0591 0.50739,0.0882 0.11792,-0.0218 0.23557,-0.0439 0.35296,-0.0662 0.008,-0.10269 0.015,-0.20564 0.0221,-0.30885 0.11057,-1.12482 0.22087,-2.24987 0.3309,-3.37521 0.27235,-2.0955 0.54442,-4.19118 0.81623,-6.28716 0.15469,-1.19101 0.30911,-2.38224 0.46326,-3.57375 0.0223,-0.0365 0.0444,-0.0733 0.0662,-0.11031 0.12528,-0.0953 0.25029,-0.19092 0.37503,-0.28678 1.6254,-1.00717 3.25047,-2.01457 4.8753,-3.02224 z" />
  </g>
</svg>
