<?xml version="1.0" encoding="UTF-8" standalone="no"?>
<svg
        width="210mm"
        height="297mm"
        viewBox="0 0 210 297"
        version="1.1"
        id="svg361"
        xmlns="http://www.w3.org/2000/svg"
        xmlns:svg="http://www.w3.org/2000/svg">
  <defs
          id="defs358" />
  <g
          id="layer1">
    <path
            style="fill:#ffffff;stroke-width:0.565;stroke:#2dbd39;stroke-opacity:1;stroke-dasharray:none"
            d="m 104.4734,97.368545 -1.9413,15.883355 12.44196,1.14713 1.58834,3.44139 1.32361,-0.79417 1.9413,-0.4412 0.79417,0.26472 -1.05889,2.91195 3.61787,2.91195 -2.29426,1.50009 2.82371,3.52963 -0.0882,2.38251 -1.76482,-0.17648 2.20602,1.41185 0.61768,1.05889 1.58834,0.52944 0.52944,-0.0882 0.61769,-0.17648 0.70593,-0.79417 0.70593,-0.52944 0.52944,0.0882 1.05889,1.41185 1.58834,2.47075 3.17667,-0.44121 0.61768,4.94149 -0.79416,0.4412 -0.61769,1.14714 -0.44121,1.14713 -0.88241,0.4412 -1.50009,0.88241 -0.97065,1.32361 -0.0882,1.41186 -0.79417,1.32361 -1.05889,1.67658 -1.67657,2.64722 -0.79417,0.97065 -0.97065,0.17648 -2.20602,0.0882 -1.41185,-0.26472 -1.41186,-0.52945 -1.85306,-1.05888 -1.23537,-0.44121 -1.50009,0.44121 -0.70593,0.4412 -0.61768,1.23537 -1.23538,3.52964 v 3.61787 l -0.26472,0.35296 h -1.05897 l -0.79417,-0.61768 -1.14713,-0.61769 -1.41185,-0.52944 v -0.70593 l -0.79417,-0.97065 0.70593,-1.50009 0.26472,-2.11778 -0.35296,-2.73547 -2.20602,-3.26491 1.23537,-1.85306 -0.26472,-1.9413 -0.70593,-1.05889 -0.26472,-1.41185 0.8824,-2.47075 -0.79416,-0.4412 -0.97065,-3.97084 -5.559177,-2.3825 0.705927,-5.3827 -21.795491,-3.26491 4.235561,-28.590029 7.235751,0.352964 z"
            id="path491" />
  </g>
  <g
          id="layer2" />
</svg>