<?xml version="1.0" encoding="UTF-8" standalone="no"?>
<!-- Created with Inkscape (http://www.inkscape.org/) -->

<svg
   width="210mm"
   height="297mm"
   viewBox="0 0 210 297"
   version="1.1"
   id="svg361"
   inkscape:version="1.2.1 (9c6d41e410, 2022-07-14)"
   sodipodi:docname="рисунок19.svg"
   xmlns:inkscape="http://www.inkscape.org/namespaces/inkscape"
   xmlns:sodipodi="http://sodipodi.sourceforge.net/DTD/sodipodi-0.dtd"
   xmlns="http://www.w3.org/2000/svg"
   xmlns:svg="http://www.w3.org/2000/svg">
  <sodipodi:namedview
     id="namedview363"
     pagecolor="#505050"
     bordercolor="#eeeeee"
     borderopacity="1"
     inkscape:showpageshadow="0"
     inkscape:pageopacity="0"
     inkscape:pagecheckerboard="0"
     inkscape:deskcolor="#505050"
     inkscape:document-units="mm"
     showgrid="false"
     inkscape:zoom="0.73851712"
     inkscape:cx="153.68635"
     inkscape:cy="562.6139"
     inkscape:window-width="1488"
     inkscape:window-height="1032"
     inkscape:window-x="82"
     inkscape:window-y="768"
     inkscape:window-maximized="0"
     inkscape:current-layer="layer1" />
  <defs
     id="defs358" />
  <g
     inkscape:label="Слой 1"
     inkscape:groupmode="layer"
     id="layer1">
    <path
       style="fill:#ffffff;stroke-width:0.565;stroke:#2dbd39;stroke-opacity:1;stroke-dasharray:none"
       d="m 69.581696,106.33015 -2.683015,18.34434 26.081405,8.92259 8.236234,8.36102 0.87354,0.68635 1.99666,0.93594 1.4975,0.49916 1.06073,0.37438 1.49749,-0.24958 1.5599,-0.31198 1.24791,-0.37438 0.62396,-0.31198 -0.18719,-4.99165 1.87187,-0.18719 0.99833,0.87354 1.99667,1.93427 2.8702,2.43343 1.12312,0.56156 2.30864,-0.18718 2.74541,-3.0574 10.42008,-0.62395 0.68636,-0.37438 0.18718,-1.74708 -0.24958,-1.68468 -0.62396,-0.68636 -0.49916,0.49917 -0.43677,0.49917 -0.68636,-0.49917 -0.68635,-0.99833 0.18719,-0.87354 0.68635,-0.81115 -0.18719,-0.62395 -1.06072,-0.12479 h -1.99667 l -0.87353,-0.24959 0.12479,-2.05905 0.99833,-2.18385 -2.18385,-0.87354 -1.18552,-0.56156 0.0624,-0.74875 -6.92592,-1.37271 0.12479,1.24791 -1.06072,-0.81114 -0.49917,-0.56156 -0.81114,-0.43677 -0.99834,-0.24958 3.30698,-3.36937 -1.93427,-1.24791 0.0624,-0.93594 -0.24958,-0.81115 -0.43677,-0.81114 0.74875,-0.93593 0.12479,-0.99834 -0.12479,-0.74874 -0.43677,-0.62396 -0.81115,-0.62396 -1.55989,-0.49917 -1.12312,-0.12479 -1.4351,-0.24958 -0.56157,-0.0624 -0.31197,-0.24958 -0.56157,-0.74875 -1.12312,-1.31031 -0.68635,-0.68635 -0.74875,-0.74875 -0.31198,-0.49917 -1.24791,-0.24958 -0.87354,-0.31198 -1.4975,0.62396 -1.49749,0.87354 -1.18552,0.18718 -1.74708,0.24959 -1.622292,0.37437 -0.935937,0.18719 -0.811143,1.99666 -2.558225,-0.56156 z"
       id="path1158" />
  </g>
</svg>
