<?xml version="1.0" encoding="UTF-8" standalone="no"?>
<!-- Created with Inkscape (http://www.inkscape.org/) -->

<svg
   width="210mm"
   height="297mm"
   viewBox="0 0 210 297"
   version="1.1"
   id="svg361"
   inkscape:version="1.2.1 (9c6d41e410, 2022-07-14)"
   sodipodi:docname="рисунок15.svg"
   xmlns:inkscape="http://www.inkscape.org/namespaces/inkscape"
   xmlns:sodipodi="http://sodipodi.sourceforge.net/DTD/sodipodi-0.dtd"
   xmlns="http://www.w3.org/2000/svg"
   xmlns:svg="http://www.w3.org/2000/svg">
  <sodipodi:namedview
     id="namedview363"
     pagecolor="#505050"
     bordercolor="#eeeeee"
     borderopacity="1"
     inkscape:showpageshadow="0"
     inkscape:pageopacity="0"
     inkscape:pagecheckerboard="0"
     inkscape:deskcolor="#505050"
     inkscape:document-units="mm"
     showgrid="false"
     inkscape:zoom="0.73851712"
     inkscape:cx="153.68635"
     inkscape:cy="562.6139"
     inkscape:window-width="1488"
     inkscape:window-height="1032"
     inkscape:window-x="134"
     inkscape:window-y="768"
     inkscape:window-maximized="0"
     inkscape:current-layer="layer1" />
  <defs
     id="defs358" />
  <g
     inkscape:label="Слой 1"
     inkscape:groupmode="layer"
     id="layer1">
    <path
       style="fill:#ffffff;stroke-width:0.565;stroke:#2dbd39;stroke-opacity:1;stroke-dasharray:none"
       d="m 69.802415,125.28951 h 0.311978 l 3.743743,-0.18719 0.06239,-7.17551 -1.497497,-1.93426 1.809475,-1.31031 1.372706,-3.74375 -0.436769,-2.12145 -0.87354,-0.68635 -0.249582,-0.37438 -0.187187,-1.31031 1.55989,-0.62395 h 0.561563 l 1.310309,0.49916 0.499166,0.49917 -0.06239,1.62229 1.497497,0.31197 2.371037,5.55322 1.497497,0.49917 0.935934,-0.74875 2.308643,-0.49917 0.873538,-0.68635 -1.871869,-1.4975 0.686353,-3.99332 1.310309,-2.37104 2.495828,-0.93593 1.372706,0.81114 0.623956,0.37437 1.684685,0.37438 2.994993,-0.0624 h 0.811144 l 1.123124,-0.37437 1.060728,0.12479 0.124791,2.05906 1.622286,0.0624 0.0624,-2.37103 1.49749,-0.12479 0.18719,0.74874 0.12479,1.24792 0.49917,0.93593 0.87354,0.43677 1.06073,0.18719 h 1.3727 l 1.31031,0.81115 0.24958,1.18551 v 0.99834 l -1.55989,2.68301 -0.12479,2.30864 1.06073,1.06073 0.81114,0.56156 -0.49917,0.93594 -0.81114,0.24958 -0.68635,0.24958 -0.0624,0.99833 0.49917,0.81115 0.93593,1.80947 0.43677,0.56156 -0.43677,1.37271 -0.81114,1.24791 -0.81115,0.87354 -0.74874,0.81115 0.12479,0.87354 0.43677,0.68635 3.24457,1.99666 -0.0624,2.24625 -2.43343,-0.62396 -1.87188,0.87354 -2.55822,0.81115 -1.80948,0.37437 -2.495822,0.43677 -0.811144,1.68468 -4.804471,-0.43677 -23.710368,-4.2429 z"
       id="path1038" />
  </g>
</svg>
