<?xml version="1.0" encoding="UTF-8" standalone="no"?>
<!-- Created with Inkscape (http://www.inkscape.org/) -->

<svg
   width="210mm"
   height="297mm"
   viewBox="0 0 210 297"
   version="1.1"
   id="svg361"
   inkscape:version="1.2.1 (9c6d41e410, 2022-07-14)"
   sodipodi:docname="рисунок5.svg"
   xmlns:inkscape="http://www.inkscape.org/namespaces/inkscape"
   xmlns:sodipodi="http://sodipodi.sourceforge.net/DTD/sodipodi-0.dtd"
   xmlns="http://www.w3.org/2000/svg"
   xmlns:svg="http://www.w3.org/2000/svg">
  <sodipodi:namedview
     id="namedview363"
     pagecolor="#505050"
     bordercolor="#eeeeee"
     borderopacity="1"
     inkscape:showpageshadow="0"
     inkscape:pageopacity="0"
     inkscape:pagecheckerboard="0"
     inkscape:deskcolor="#505050"
     inkscape:document-units="mm"
     showgrid="false"
     inkscape:zoom="0.73851712"
     inkscape:cx="153.68635"
     inkscape:cy="561.93687"
     inkscape:window-width="1920"
     inkscape:window-height="1009"
     inkscape:window-x="-8"
     inkscape:window-y="760"
     inkscape:window-maximized="1"
     inkscape:current-layer="layer1" />
  <defs
     id="defs358" />
  <g
     inkscape:label="Слой 1"
     inkscape:groupmode="layer"
     id="layer1">
    <path
       style="fill:#ffffff;stroke-width:0.565;stroke:#2dbd39;stroke-opacity:1;stroke-dasharray:none"
       d="m 88.287366,131.36285 13.412614,1.5001 -2.956071,7.72107 3.353151,7.58872 h 7.27987 l 2.95607,1.98541 -0.48532,2.73547 14.82446,1.23537 -4.41204,23.38383 -5.20622,1.01477 -0.35296,1.54422 -1.76482,0.97064 -1.10301,-1.05889 -0.57356,0.57357 -0.2206,-0.0441 -0.48533,-0.66181 -0.17648,-0.79416 v -0.66181 l -0.57357,-0.70593 -2.95606,-2.42662 -1.89718,1.80894 0.13236,1.58833 -0.61769,0.66181 -13.147885,-2.77959 -7.897555,-0.52944 v -3.22079 l 0.352962,-0.17649 0.220601,-0.48532 0.264724,-3.97084 0.397084,-1.10301 0.926528,-1.7207 0.397084,-1.01477 0.08824,-1.01477 -0.220602,-0.61768 -0.529447,-0.70593 1.01477,-0.92653 0.397084,-0.52944 -0.970648,-0.88241 0.926528,-0.66181 0.705927,-3.39727 0.176483,-4.85325 -3.485515,-0.61768 z"
       id="path616" />
  </g>
</svg>
