<?xml version="1.0" encoding="UTF-8" standalone="no"?>
<!-- Created with Inkscape (http://www.inkscape.org/) -->

<svg
   width="210mm"
   height="297mm"
   viewBox="0 0 210 297"
   version="1.1"
   id="svg361"
   inkscape:version="1.2.1 (9c6d41e410, 2022-07-14)"
   sodipodi:docname="рисунок7.svg"
   xmlns:inkscape="http://www.inkscape.org/namespaces/inkscape"
   xmlns:sodipodi="http://sodipodi.sourceforge.net/DTD/sodipodi-0.dtd"
   xmlns="http://www.w3.org/2000/svg"
   xmlns:svg="http://www.w3.org/2000/svg">
  <sodipodi:namedview
     id="namedview363"
     pagecolor="#505050"
     bordercolor="#eeeeee"
     borderopacity="1"
     inkscape:showpageshadow="0"
     inkscape:pageopacity="0"
     inkscape:pagecheckerboard="0"
     inkscape:deskcolor="#505050"
     inkscape:document-units="mm"
     showgrid="false"
     inkscape:zoom="0.73851712"
     inkscape:cx="153.68635"
     inkscape:cy="562.6139"
     inkscape:window-width="1488"
     inkscape:window-height="1032"
     inkscape:window-x="158"
     inkscape:window-y="768"
     inkscape:window-maximized="0"
     inkscape:current-layer="layer1" />
  <defs
     id="defs358" />
  <g
     inkscape:label="Слой 1"
     inkscape:groupmode="layer"
     id="layer1">
    <path
       style="fill:#ffffff;stroke-width:0.565;stroke:#2dbd39;stroke-opacity:1;stroke-dasharray:none"
       d="m 87.104926,128.47596 21.776104,3.55655 -0.93594,5.11645 5.98999,2.74541 0.68635,3.74375 0.87354,0.37437 -0.87354,2.24625 -0.12479,1.18552 0.18719,0.56156 0.74875,0.74874 0.12479,1.74708 -0.18719,0.81115 -0.87354,1.31031 1.99666,2.9326 0.37438,1.3727 -0.0624,1.55989 0.24958,1.43511 -0.37437,1.12312 -0.43677,1.31031 h -1.12312 l -0.68635,0.12479 -0.81115,0.49916 h -1.18552 l -1.06072,0.18719 -0.93594,0.49917 -1.06073,0.68635 -1.18551,-0.31198 -1.5599,-0.0624 -0.56156,-0.31198 -0.24958,-0.74875 0.24958,-0.74875 0.68635,-0.68635 0.0624,-0.99833 -0.12479,-0.62396 -0.43677,-0.93594 -0.31198,-0.56156 -0.74875,-0.37437 -0.93593,-0.37438 -0.87355,-0.0624 -0.56155,0.37437 -0.37438,0.24959 -0.31198,0.68635 -0.24958,0.56156 -0.62396,0.68635 -0.74875,0.56156 -0.748745,0.43677 -0.748749,0.1248 -0.873541,0.12479 -1.060725,0.31198 -0.74875,0.43677 -0.436768,0.49916 v 0.49917 0.24958 l 0.12479,0.31198 -0.0624,0.37437 0.249584,0.31198 0.187187,0.37438 -0.0624,0.62395 v 0.49917 l -0.623956,0.24958 -0.623959,0.49917 -0.436769,0.0624 -0.436769,0.18719 -0.311978,0.49916 -0.124793,0.68636 0.0624,0.43677 v 0.43677 l 0.249581,0.68635 0.124793,0.24958 0.0624,0.62396 -0.0624,0.37438 -0.249584,0.31197 -0.374374,0.31198 h -0.56156 l -0.87354,0.0624 h -0.436772 l -0.499165,0.0624 -0.311979,0.31198 -0.374374,0.24958 -0.56156,0.31198 -0.561562,-0.56156 -0.623957,-0.68635 -0.748749,-0.81115 -0.935935,-0.62395 -0.998331,-0.87354 -0.374375,-0.56156 -1.4351,-3.68135 -3.119786,-0.68635 h -2.620619 l 1.372703,-14.03904 h 4.118118 z"
       id="path674" />
  </g>
</svg>
