<?xml version="1.0" encoding="UTF-8" standalone="no"?>
<!-- Created with Inkscape (http://www.inkscape.org/) -->

<svg
   width="210mm"
   height="297mm"
   viewBox="0 0 210 297"
   version="1.1"
   id="svg361"
   inkscape:version="1.2.1 (9c6d41e410, 2022-07-14)"
   sodipodi:docname="рисунок11.svg"
   xmlns:inkscape="http://www.inkscape.org/namespaces/inkscape"
   xmlns:sodipodi="http://sodipodi.sourceforge.net/DTD/sodipodi-0.dtd"
   xmlns="http://www.w3.org/2000/svg"
   xmlns:svg="http://www.w3.org/2000/svg">
  <sodipodi:namedview
     id="namedview363"
     pagecolor="#505050"
     bordercolor="#eeeeee"
     borderopacity="1"
     inkscape:showpageshadow="0"
     inkscape:pageopacity="0"
     inkscape:pagecheckerboard="0"
     inkscape:deskcolor="#505050"
     inkscape:document-units="mm"
     showgrid="false"
     inkscape:zoom="0.73851712"
     inkscape:cx="153.68635"
     inkscape:cy="562.6139"
     inkscape:window-width="1488"
     inkscape:window-height="1032"
     inkscape:window-x="158"
     inkscape:window-y="768"
     inkscape:window-maximized="0"
     inkscape:current-layer="layer1" />
  <defs
     id="defs358" />
  <g
     inkscape:label="Слой 1"
     inkscape:groupmode="layer"
     id="layer1">
    <path
       style="fill:#ffffff;stroke-width:0.565;stroke:#2dbd39;stroke-opacity:1;stroke-dasharray:none"
       d="m 100.56788,129.31544 -0.970647,0.6618 -0.176482,0.26473 -0.220602,0.48532 0.132361,0.2206 0.397084,0.48533 0.308846,0.30884 0.35296,0.83829 -0.35296,0.79417 -0.926532,0.6618 -1.014769,0.26473 -0.308843,0.35296 -0.04412,0.97065 -0.661805,0.70592 -1.058892,0.70593 -0.794165,0.35296 -0.04412,0.75005 -1.455973,0.35296 -0.529447,-0.0882 -0.441203,0.22061 -0.397084,0.48532 -0.08824,0.70593 0.220602,0.52944 0.308843,0.22061 0.882409,0.6618 0.705927,0.26472 0.08824,0.26473 0.617686,0.17648 1.103011,0.0882 0.352964,-0.35296 0.882407,-0.26473 1.323612,-0.2206 0.352965,0.52945 0.661808,1.05889 0.485319,0.57356 0.39708,0.61769 -0.0441,0.48532 -0.0441,0.35297 0.26472,0.35296 0.26473,0.30884 0.0882,0.75005 -0.0882,0.48533 -0.57357,0.61768 -0.30884,0.66181 -0.13236,0.6618 v 0.57357 l -0.220601,0.92653 0.352961,0.48532 0.26472,0.88241 0.61769,0.88241 h 0.57356 l 0.61769,-0.30884 h 0.57356 l 0.83829,0.30884 1.05889,0.30884 0.70593,0.30885 1.19125,0.0441 0.92653,-0.88241 0.75005,-0.17648 1.23537,-0.39709 2.11778,-0.48532 1.23537,-0.0441 0.35296,0.0882 0.30885,0.0441 0.52944,0.61768 0.44121,0.52945 0.4412,0.61769 0.70593,0.0441 2.07366,2.02953 0.83829,0.52945 0.79416,0.0441 0.79417,-0.4412 0.83829,-1.7207 0.17648,-0.39708 0.0441,-2.91195 -0.39708,-0.75005 0.13236,-0.88241 0.70593,-0.39708 0.83828,-0.0441 0.79417,-1.19125 0.52945,-1.54422 0.4412,-1.45597 0.26472,-0.52945 0.26473,-0.35296 -2.29427,-1.85306 -1.54421,-0.66181 -1.45597,-0.35296 -1.41186,-0.35296 -1.45597,-1.01477 -0.35296,-0.97065 -0.22061,-0.70593 0.44121,-0.2206 h 1.27949 l 1.63246,0.0441 0.79416,-0.13236 0.35297,-0.92653 1.10301,-0.97065 0.88241,-0.70593 1.27949,-0.8824 0.75005,-0.35297 0.0441,-0.57356 -0.83829,-0.66181 -0.83829,-0.61769 -1.05889,-0.52944 -1.41185,-0.92653 -3.4414,-1.98542 -0.0882,-0.92653 -1.50009,-1.05889 -0.88241,0.2206 -0.35297,0.0882 -0.2206,0.17649 h -0.61768 l -1.01477,-1.5001 -2.73547,-0.0882 -0.92653,0.30884 -0.39708,0.26473 -0.0882,1.01477 0.52944,0.57356 0.61769,0.35296 -0.17648,1.01477 -0.13236,0.30885 -0.13237,0.61768 -1.32361,-0.0441 -2.33838,1.7207 -1.10301,-1.9413 -0.39709,-0.26472 -0.8824,-0.0441 -0.39709,0.79417 z"
       id="path908" />
  </g>
</svg>
