<?xml version="1.0" encoding="UTF-8" standalone="no"?>
<!-- Created with Inkscape (http://www.inkscape.org/) -->

<svg
   width="210mm"
   height="297mm"
   viewBox="0 0 210 297"
   version="1.1"
   id="svg361"
   inkscape:version="1.2.1 (9c6d41e410, 2022-07-14)"
   sodipodi:docname="рисунок18.svg"
   xmlns:inkscape="http://www.inkscape.org/namespaces/inkscape"
   xmlns:sodipodi="http://sodipodi.sourceforge.net/DTD/sodipodi-0.dtd"
   xmlns="http://www.w3.org/2000/svg"
   xmlns:svg="http://www.w3.org/2000/svg">
  <sodipodi:namedview
     id="namedview363"
     pagecolor="#505050"
     bordercolor="#eeeeee"
     borderopacity="1"
     inkscape:showpageshadow="0"
     inkscape:pageopacity="0"
     inkscape:pagecheckerboard="0"
     inkscape:deskcolor="#505050"
     inkscape:document-units="mm"
     showgrid="false"
     inkscape:zoom="0.73851712"
     inkscape:cx="153.68635"
     inkscape:cy="562.6139"
     inkscape:window-width="1488"
     inkscape:window-height="1032"
     inkscape:window-x="82"
     inkscape:window-y="768"
     inkscape:window-maximized="0"
     inkscape:current-layer="layer1" />
  <defs
     id="defs358" />
  <g
     inkscape:label="Слой 1"
     inkscape:groupmode="layer"
     id="layer1">
    <path
       style="fill:#ffffff;stroke-width:0.565;stroke:#2dbd39;stroke-opacity:1;stroke-dasharray:none"
       d="m 66.428888,88.190122 0.308843,-0.617686 0.132361,-0.529444 0.352964,-0.485325 0.705927,-0.308843 0.485323,0.13236 0.08824,0.441206 0.750049,-0.04412 h 0.308843 l 0.176479,0.308843 0.441206,0.352965 0.705927,0.08824 0.750046,-0.176482 0.705927,-0.441204 0.220602,-0.529447 0.04412,-0.705926 -0.132361,-0.352963 0.04412,-0.882409 0.308842,-0.397084 0.397084,-0.397084 0.04412,-0.750046 0.485325,-0.176482 h 0.441206 l 0.308843,0.308843 0.26472,0.397084 -0.13236,0.485325 0.705927,0.176482 0.352965,0.308843 -0.04412,0.529444 0.04412,0.838288 0.176479,0.485325 0.794168,0.308843 0.617686,-0.132361 1.103011,-0.352964 0.750049,-0.485323 1.191249,-0.264724 0.529447,-0.176482 0.485325,-0.750046 1.01477,-0.83829 0.441203,-0.750046 0.441204,-0.176483 0.264723,-0.04412 0.529445,-0.750049 0.308842,-0.926528 1.147133,-0.838287 1.01477,-0.617686 1.323612,0.13236 0.441204,0.441204 0.220601,0.882409 0.485326,0.97065 0.352964,0.705927 -0.220604,0.926529 -0.573564,0.352962 -0.838287,1.147133 -0.308845,1.014769 0.176482,1.191252 0.04412,0.750046 0.573564,0.352965 1.764818,-0.08824 0.794168,-0.176482 1.01477,-1.323613 0.970647,-0.750049 0.88241,-0.08824 0.220601,0.705927 0.573567,0.352962 0.97065,0.485325 0.794165,0.441203 1.544217,0.705927 0.573564,0.176482 0.308846,0.308843 -1.455976,0.264724 -3.088431,4.059079 3.176672,1.10301 0.220602,1.853057 -4.985607,4.1032 -4.01496,0.39709 -1.544214,5.64741 -1.191252,1.05889 -1.411854,-0.0441 -0.529444,-0.48532 -0.573567,-1.05889 -0.04412,-0.66181 0.750049,-0.66181 0.220602,-0.39708 -1.235371,-0.92653 -0.132361,-1.58833 -1.411854,-0.75005 -0.485325,-0.26472 -0.750049,-0.61769 -3.661994,-0.0441 -1.367735,0.52944 -0.529444,0.48533 -0.441203,0.39708 -0.397084,-0.39708 -0.529445,-0.2206 -1.01477,0.0882 -0.705926,-0.92653 1.191249,-1.80894 0.264724,-1.058892 0.04412,-1.367731 0.176482,-1.014773 -6.220981,0.08824 -0.220602,-1.01477 -0.352962,-1.01477 0.352962,-0.529444 0.397084,-0.397084 -0.04412,-1.01477 -0.794168,-0.838287 -0.04412,-1.01477 z"
       id="path1127" />
  </g>
</svg>
