<?xml version="1.0" encoding="UTF-8" standalone="no"?>
<!-- Created with Inkscape (http://www.inkscape.org/) -->

<svg
   width="210mm"
   height="297mm"
   viewBox="0 0 210 297"
   version="1.1"
   id="svg361"
   inkscape:version="1.2.1 (9c6d41e410, 2022-07-14)"
   sodipodi:docname="рисунок13.svg"
   xmlns:inkscape="http://www.inkscape.org/namespaces/inkscape"
   xmlns:sodipodi="http://sodipodi.sourceforge.net/DTD/sodipodi-0.dtd"
   xmlns="http://www.w3.org/2000/svg"
   xmlns:svg="http://www.w3.org/2000/svg">
  <sodipodi:namedview
     id="namedview363"
     pagecolor="#505050"
     bordercolor="#eeeeee"
     borderopacity="1"
     inkscape:showpageshadow="0"
     inkscape:pageopacity="0"
     inkscape:pagecheckerboard="0"
     inkscape:deskcolor="#505050"
     inkscape:document-units="mm"
     showgrid="false"
     inkscape:zoom="0.73851712"
     inkscape:cx="153.68635"
     inkscape:cy="562.6139"
     inkscape:window-width="1488"
     inkscape:window-height="1032"
     inkscape:window-x="158"
     inkscape:window-y="768"
     inkscape:window-maximized="0"
     inkscape:current-layer="layer1" />
  <defs
     id="defs358" />
  <g
     inkscape:label="Слой 1"
     inkscape:groupmode="layer"
     id="layer1">
    <path
       style="fill:#ffffff;stroke-width:0.565;stroke:#2dbd39;stroke-opacity:1;stroke-dasharray:none"
       d="m 84.16383,115.15511 0.264721,-0.0882 0.88241,-0.79417 1.367734,-0.0882 0.705927,0.26472 0.661805,-0.26472 0.617685,-0.26472 0.970651,0.2206 0.308843,1.01477 0.485325,0.97065 0.705927,0.83829 0.617685,0.2206 0.970651,-0.0882 0.661805,-0.79417 0.529444,-0.52944 0.529447,-0.0441 1.367732,0.0441 0.485325,-0.52945 0.573567,-0.75004 0.08824,-0.88241 -0.04412,-0.57357 -0.617686,-0.13236 -0.661807,-0.2206 -0.441204,-0.88241 0.397084,-1.01477 0.485326,-0.30884 0.926528,-0.22061 1.235371,-0.52944 0.794168,-0.52945 1.014766,0.88241 0.48533,0.17648 0.83829,0.39709 0.79416,-0.39709 0.57357,-0.26472 -0.0441,-0.88241 0.13236,-0.70593 0.52945,-0.0441 0.26472,-0.17649 -0.44121,-0.88241 -0.2206,-0.97064 0.30884,-0.75005 0.70593,-0.44121 0.70593,0.30885 0.39708,0.79416 -0.57356,1.23538 -0.17648,0.83828 0.4412,0.57357 1.36773,-0.30884 1.23538,-0.0882 1.23537,-0.0883 0.92652,-0.52944 1.45598,-0.13236 1.32361,0.57356 0.97065,0.13237 1.01477,-0.44121 0.44121,-1.14713 0.92652,-0.97065 1.54422,-0.0882 0.92653,1.05889 1.01477,1.45597 0.17648,1.32362 -0.83829,1.58833 -0.79417,1.98542 0.22061,1.14713 0.4412,2.20602 0.35296,2.16191 -0.0441,1.23537 3.52964,0.88241 -0.75005,2.1619 -5.38269,-0.0882 -2.55898,3.61787 -7.36812,4.05908 -1.85306,-0.39708 -0.61768,-0.66181 -0.0882,-0.52944 1.27949,-2.02955 -1.54422,-1.05888 -0.8824,1.14713 -0.79417,-0.0882 -0.97065,-0.30884 -0.4412,0.22061 -0.441209,0.39708 -1.367732,-1.01477 0.661805,-0.83829 -0.441204,-0.48533 -0.485325,-0.61768 0.705927,-0.83829 -0.04412,-0.66181 -0.176483,-0.6618 H 95.63514 l -1.103011,1.14713 -0.794166,0.35296 -1.455975,-0.17648 -1.235371,0.92653 -1.853057,-1.63246 -1.455976,1.45598 -0.882409,-0.2206 -0.264721,-1.01477 0.08824,-1.36774 -0.132363,-1.14713 1.323612,-0.88241 -2.161899,-1.98541 -0.88241,-1.23538 z"
       id="path980" />
  </g>
</svg>
