<?xml version="1.0" encoding="UTF-8" standalone="no"?>
<!-- Created with Inkscape (http://www.inkscape.org/) -->

<svg
   width="210mm"
   height="297mm"
   viewBox="0 0 210 297"
   version="1.1"
   id="svg361"
   inkscape:version="1.2.1 (9c6d41e410, 2022-07-14)"
   sodipodi:docname="рисунок6.svg"
   xmlns:inkscape="http://www.inkscape.org/namespaces/inkscape"
   xmlns:sodipodi="http://sodipodi.sourceforge.net/DTD/sodipodi-0.dtd"
   xmlns="http://www.w3.org/2000/svg"
   xmlns:svg="http://www.w3.org/2000/svg">
  <sodipodi:namedview
     id="namedview363"
     pagecolor="#505050"
     bordercolor="#eeeeee"
     borderopacity="1"
     inkscape:showpageshadow="0"
     inkscape:pageopacity="0"
     inkscape:pagecheckerboard="0"
     inkscape:deskcolor="#505050"
     inkscape:document-units="mm"
     showgrid="false"
     inkscape:zoom="0.73851712"
     inkscape:cx="153.68635"
     inkscape:cy="562.6139"
     inkscape:window-width="1488"
     inkscape:window-height="1032"
     inkscape:window-x="158"
     inkscape:window-y="768"
     inkscape:window-maximized="0"
     inkscape:current-layer="layer1" />
  <defs
     id="defs358" />
  <g
     inkscape:label="Слой 1"
     inkscape:groupmode="layer"
     id="layer1">
    <path
       style="fill:#ffffff;stroke-width:0.565;stroke:#2dbd39;stroke-opacity:1;stroke-dasharray:none"
       d="m 107.74458,197.76813 h -2.07366 l -5.29445,-7.05927 -3.397284,-13.32437 -5.18275,-7.72397 -8.98498,0.12479 2.82878,-20.68201 -2.86783,-1.32362 1.0589,-0.83828 -0.13237,-1.7207 1.2795,-1.10301 0.2206,-1.2795 -1.80894,-1.45597 0.26472,-1.01477 2.02954,-0.30884 -0.26472,-4.19144 1.9413,-2.1619 4.56029,-34.115134 22.493654,1.965474 -0.99833,7.83066 10.1705,1.84067 -1.3103,14.00784 -2.37104,11.38721 1.99666,2.74542 -0.31198,0.43677 -0.40557,0.34317 -0.43677,0.46797 -0.53036,0.37438 -0.62396,0.34317 -0.71755,0.28078 -0.46797,0.15599 -0.21839,0.12479 -0.77994,0.53037 -0.56156,0.0936 -0.53037,0.49917 -0.93593,1.06072 -0.59276,0.77995 -0.18719,0.81114 0.34318,0.12479 0.53036,0.18719 0.34318,-0.0936 0.21838,0.71755 z"
       id="path645" />
  </g>
</svg>
