<?xml version="1.0" encoding="UTF-8" standalone="no"?>
<!-- Created with Inkscape (http://www.inkscape.org/) -->

<svg
   width="210mm"
   height="297mm"
   viewBox="0 0 210 297"
   version="1.1"
   id="svg361"
   inkscape:version="1.2.1 (9c6d41e410, 2022-07-14)"
   sodipodi:docname="рисунок12.svg"
   xmlns:inkscape="http://www.inkscape.org/namespaces/inkscape"
   xmlns:sodipodi="http://sodipodi.sourceforge.net/DTD/sodipodi-0.dtd"
   xmlns="http://www.w3.org/2000/svg"
   xmlns:svg="http://www.w3.org/2000/svg">
  <sodipodi:namedview
     id="namedview363"
     pagecolor="#505050"
     bordercolor="#eeeeee"
     borderopacity="1"
     inkscape:showpageshadow="0"
     inkscape:pageopacity="0"
     inkscape:pagecheckerboard="0"
     inkscape:deskcolor="#505050"
     inkscape:document-units="mm"
     showgrid="false"
     inkscape:zoom="0.73851712"
     inkscape:cx="153.68635"
     inkscape:cy="562.6139"
     inkscape:window-width="1488"
     inkscape:window-height="1032"
     inkscape:window-x="158"
     inkscape:window-y="768"
     inkscape:window-maximized="0"
     inkscape:current-layer="layer1" />
  <defs
     id="defs358" />
  <g
     inkscape:label="Слой 1"
     inkscape:groupmode="layer"
     id="layer1">
    <path
       style="fill:#ffffff;stroke-width:0.565;stroke:#2dbd39;stroke-opacity:1;stroke-dasharray:none"
       d="m 87.893856,154.26196 1.235374,-1.80893 0.04412,-3.08844 -0.485325,-1.27949 0.838287,-0.70593 h 1.014773 l 1.588333,-4.5444 0.441206,-0.6618 -1.897179,-1.67658 -2.603106,-0.88241 -2.647225,-0.83829 -1.367734,-1.50009 -0.132361,-0.83829 1.323613,-0.2206 h 2.735466 l 0.176483,-0.70593 3.573753,-3.00019 0.926531,-0.30884 1.500092,0.48532 0.794168,-8.38288 1.235374,-0.0882 -0.485325,-3.97084 3.794355,-0.17648 0.08824,-0.39708 6.485701,0.30884 4.19144,0.75005 4.45617,0.92653 4.89736,1.01477 1.32362,0.4412 0.48532,-0.79417 -0.0441,-1.45597 1.76482,-2.07366 2.73547,2.69135 0.79416,0.39708 0.0882,0.97065 v 0.30884 l 0.57357,0.83829 0.2206,0.2206 0.70593,-0.52945 0.88241,0.83829 0.52944,0.17648 1.19125,-0.75004 0.39709,-0.26473 0.0441,-1.50009 3.30903,2.33838 -3.48551,3.2208 2.77958,2.6031 -0.48532,3.26491 -3.35316,1.36773 -0.0441,2.60311 -0.0441,1.14713 -0.26473,0.39708 -0.48532,0.30885 -0.44121,0.13236 h -0.83829 l -0.35296,-0.17648 -0.61768,-0.35296 -0.92653,-0.17649 h -1.36774 l -0.52944,0.30885 -1.14713,0.52944 -0.52945,0.0441 h -1.58833 l -1.10301,-0.0882 0.61768,-1.45597 0.2206,-0.92653 -0.26472,-0.52945 -0.61768,-0.4412 h -0.35297 l -0.79416,0.75005 -0.13237,0.75004 0.17648,0.61769 0.35297,0.35296 0.0441,0.39709 -0.88241,0.30884 -0.30884,1.05889 -0.48533,0.83829 -0.79416,0.0441 -1.23538,-0.44121 -0.57356,-0.75004 -1.80894,0.79416 -0.97065,0.52945 -0.70593,0.39708 -0.57356,0.22061 -0.17648,1.01477 0.2206,0.70592 0.92653,0.26472 0.61768,0.0882 0.0882,0.88241 -0.17648,0.44121 -0.39708,0.61768 -0.79417,0.61769 -1.45597,0.0441 -0.88241,0.75005 -0.70593,0.61768 -0.79417,0.0882 -0.52944,-0.57356 -0.75005,-0.79417 -0.13236,-0.39708 -0.35296,-0.83829 -0.26473,-0.35296 -0.75004,-0.30885 -0.79417,0.13236 -0.75005,0.30885 -0.61769,-0.0441 -0.83828,-0.13236 -1.01477,0.48532 -0.661808,0.61769 0.352958,0.61768 0.48533,0.75005 0.52944,0.79417 0.57357,0.70592 0.48533,0.44121 0.92652,0.57356 0.52945,0.35297 -0.52945,0.26472 -0.61768,0.48532 -0.44121,0.83829 -0.13236,1.23538 -0.97065,0.0441 -0.970647,0.97066 -3.485515,0.13236 -1.279493,0.26472 -1.058889,0.0441 -0.13236,-0.4412 h -0.970651 l -1.455973,0.0441 -0.705927,0.13236 -0.882409,0.26473 -1.191252,-0.0882 z"
       id="path951" />
  </g>
</svg>
