<?xml version="1.0" encoding="UTF-8" standalone="no"?>
<!-- Created with Inkscape (http://www.inkscape.org/) -->

<svg
   width="210mm"
   height="297mm"
   viewBox="0 0 210 297"
   version="1.1"
   id="svg361"
   inkscape:version="1.2.1 (9c6d41e410, 2022-07-14)"
   sodipodi:docname="рисунок20.svg"
   xmlns:inkscape="http://www.inkscape.org/namespaces/inkscape"
   xmlns:sodipodi="http://sodipodi.sourceforge.net/DTD/sodipodi-0.dtd"
   xmlns="http://www.w3.org/2000/svg"
   xmlns:svg="http://www.w3.org/2000/svg">
  <sodipodi:namedview
     id="namedview363"
     pagecolor="#505050"
     bordercolor="#eeeeee"
     borderopacity="1"
     inkscape:showpageshadow="0"
     inkscape:pageopacity="0"
     inkscape:pagecheckerboard="0"
     inkscape:deskcolor="#505050"
     inkscape:document-units="mm"
     showgrid="false"
     inkscape:zoom="0.73851712"
     inkscape:cx="153.68635"
     inkscape:cy="562.6139"
     inkscape:window-width="1488"
     inkscape:window-height="1032"
     inkscape:window-x="82"
     inkscape:window-y="768"
     inkscape:window-maximized="0"
     inkscape:current-layer="layer1" />
  <defs
     id="defs358" />
  <g
     inkscape:label="Слой 1"
     inkscape:groupmode="layer"
     id="layer1">
    <path
       style="fill:#ffffff;stroke-width:0.565;stroke:#2dbd39;stroke-opacity:1;stroke-dasharray:none"
       d="m 80.772786,105.02627 -0.249582,-0.81114 0.623957,-1.06073 1.372706,-0.99833 1.55989,-1.37271 0.499169,-0.68635 1.809474,-0.249584 -0.0624,-0.998331 -0.311978,-0.873541 0.935934,-0.311978 0.87354,0.374375 1.372706,-0.0624 0.811144,0.811144 0.311978,0.374375 0.74875,-0.56156 0.436769,-0.499165 -0.311979,-0.74875 0.0624,-0.74875 0.561562,-0.811144 0.998332,-0.06239 0.499165,0.623957 0.623956,-0.311978 1.060728,-0.623959 0.935935,-0.56156 1.185518,-0.0624 2.620621,0.0624 0.811149,0.686353 1.18551,0.56156 0.62396,0.686353 -0.0624,0.811146 0.56156,0.998331 0.62396,0.623956 -0.68635,0.748747 -0.18719,0.748753 0.43677,0.81114 0.74875,0.62396 1.24791,0.12479 1.12312,-0.81114 0.56157,-0.31198 6.92592,0.43677 -4.55489,7.3003 1.99667,4.86686 -5.30364,11.41842 -10.108103,-4.92927 0.499166,-2.24624 -0.0624,-1.4975 -0.499166,-0.68635 -0.998331,0.99833 -1.435102,-1.55989 0.623959,-1.12313 0.436769,-0.81114 -0.873541,-0.37438 -1.185518,0.31199 -1.934266,-0.31199 -0.561562,-0.37437 0.249584,-1.31031 0.623956,-1.55989 0.311978,-1.06073 -1.497496,-0.93593 -1.31031,-0.37438 -0.748749,-0.37437 0.249584,-1.06073 z"
       id="path1187" />
  </g>
</svg>
