<?xml version="1.0" encoding="UTF-8" standalone="no"?>
<!-- Created with Inkscape (http://www.inkscape.org/) -->

<svg
   width="210mm"
   height="297mm"
   viewBox="0 0 210 297"
   version="1.1"
   id="svg361"
   inkscape:version="1.2.1 (9c6d41e410, 2022-07-14)"
   sodipodi:docname="рисунок10.svg"
   xmlns:inkscape="http://www.inkscape.org/namespaces/inkscape"
   xmlns:sodipodi="http://sodipodi.sourceforge.net/DTD/sodipodi-0.dtd"
   xmlns="http://www.w3.org/2000/svg"
   xmlns:svg="http://www.w3.org/2000/svg">
  <sodipodi:namedview
     id="namedview363"
     pagecolor="#505050"
     bordercolor="#eeeeee"
     borderopacity="1"
     inkscape:showpageshadow="0"
     inkscape:pageopacity="0"
     inkscape:pagecheckerboard="0"
     inkscape:deskcolor="#505050"
     inkscape:document-units="mm"
     showgrid="false"
     inkscape:zoom="0.73851712"
     inkscape:cx="153.68635"
     inkscape:cy="562.6139"
     inkscape:window-width="1488"
     inkscape:window-height="1032"
     inkscape:window-x="158"
     inkscape:window-y="768"
     inkscape:window-maximized="0"
     inkscape:current-layer="layer1" />
  <defs
     id="defs358" />
  <g
     inkscape:label="Слой 1"
     inkscape:groupmode="layer"
     id="layer1">
    <path
       style="fill:#ffffff;stroke-width:0.565;stroke:#2dbd39;stroke-opacity:1;stroke-dasharray:none"
       d="m 93.460053,162.39171 2.161903,-1.45597 1.455973,-0.22061 0.661807,-1.67657 -1.279493,-0.75005 0.08824,-1.41185 1.455973,-0.66181 2.558984,0.17648 0.92653,1.63246 2.1619,-0.57357 1.67658,1.05889 -0.13236,0.97065 7.63283,4.67677 0.17648,0.70593 0.92653,0.39708 0.57357,-0.22061 0.83829,-8.07403 1.19125,-0.13236 -0.52945,-4.14732 h 3.75024 l 0.26472,-0.44121 0.13236,-3.35315 0.70593,-0.75005 0.0441,-3.70611 1.80894,-3.92672 -0.0882,-1.67658 -0.92653,-0.88241 1.58833,-1.01477 -0.88241,-1.14713 0.92653,-0.75004 0.70593,-4.19145 0.13236,-3.97083 -6.4857,-1.5001 h -2.69135 l -2.77958,3.22079 -1.01477,-1.05889 -0.61769,-0.0441 -0.39708,0.26473 -0.48533,0.0441 -0.70593,-0.35296 -1.27949,-0.35296 -1.23537,-2.1619 -0.35296,0.0441 -0.2206,0.17648 h -0.17649 l 0.0441,1.50009 -4.72088,4.89737 -0.30884,1.01477 0.2206,1.14713 0.17648,0.92653 0.0441,2.02954 0.13236,3.00019 -0.57356,0.88241 -2.47075,1.01477 -1.764816,2.47074 0.308843,0.70593 -1.235374,1.89718 -0.485323,2.11778 -3.529634,4.3238 -1.367734,-0.0441 -0.794168,0.66181 -0.04412,1.27949 0.485323,0.83829 0.794168,0.17648 0.882409,0.97065 0.529445,0.88241 -0.08824,1.10301 -0.397081,0.92653 v 0.35296 l 0.794165,0.17648 z"
       id="path765" />
  </g>
</svg>
