<?xml version="1.0" encoding="UTF-8" standalone="no"?>
<!-- Created with Inkscape (http://www.inkscape.org/) -->

<svg
   width="210mm"
   height="297mm"
   viewBox="0 0 210 297"
   version="1.1"
   id="svg361"
   inkscape:version="1.2.1 (9c6d41e410, 2022-07-14)"
   sodipodi:docname="рисунок9.svg"
   xmlns:inkscape="http://www.inkscape.org/namespaces/inkscape"
   xmlns:sodipodi="http://sodipodi.sourceforge.net/DTD/sodipodi-0.dtd"
   xmlns="http://www.w3.org/2000/svg"
   xmlns:svg="http://www.w3.org/2000/svg">
  <sodipodi:namedview
     id="namedview363"
     pagecolor="#505050"
     bordercolor="#eeeeee"
     borderopacity="1"
     inkscape:showpageshadow="0"
     inkscape:pageopacity="0"
     inkscape:pagecheckerboard="0"
     inkscape:deskcolor="#505050"
     inkscape:document-units="mm"
     showgrid="false"
     inkscape:zoom="0.73851712"
     inkscape:cx="153.68635"
     inkscape:cy="562.6139"
     inkscape:window-width="1488"
     inkscape:window-height="1032"
     inkscape:window-x="158"
     inkscape:window-y="768"
     inkscape:window-maximized="0"
     inkscape:current-layer="layer1" />
  <defs
     id="defs358" />
  <g
     inkscape:label="Слой 1"
     inkscape:groupmode="layer"
     id="layer1">
    <path
       style="fill:#ffffff;stroke-width:0.565;stroke:#2dbd39;stroke-opacity:1;stroke-dasharray:none"
       d="m 93.421234,158.20199 2.073661,5.64742 1.897179,0.57356 0.661805,-0.79416 0.926528,-0.13237 1.01477,-0.17648 0.529443,-0.17648 0.70593,-0.83829 -2.029538,-1.19125 1.147128,-4.89737 1.01477,-1.72069 0.70593,-0.39709 2.11778,-0.4412 1.10301,1.01477 5.95626,0.57356 0.48532,-0.35296 1.80894,-0.13236 0.26472,2.07366 0.88241,0.26472 0.57357,-0.0441 0.0441,-2.3825 1.54421,-0.2206 0.79417,-1.32362 0.66181,-1.23537 0.13236,-0.48532 -0.61769,-0.52945 v -1.32361 l -1.85306,-2.51486 -1.32361,-0.17649 -0.70593,0.30885 -0.70592,0.52944 -1.05889,-0.0441 -0.75005,-0.4412 -0.92653,-0.70593 -0.70593,-0.39708 -0.35296,-0.70593 0.35296,-0.92653 0.39709,-0.4412 1.10301,-0.0441 0.83829,-0.17649 0.30884,-0.52944 0.26472,-0.39708 1.67658,-1.19126 0.48532,-0.70592 0.26473,-0.79417 0.39708,-0.26472 0.88241,-0.22061 0.79416,-0.6618 0.30885,-0.83829 -0.26473,-0.66181 -0.83828,-0.92652 -0.0882,-0.70593 0.4412,-0.52945 0.92653,-0.35296 h 1.01477 l 0.88241,-0.13236 1.19125,-1.98542 0.0441,-1.36774 -1.45598,-1.58833 -0.6618,-0.13236 -0.57357,-0.44121 -0.0441,-1.01477 0.30885,-0.8824 0.6618,-0.35297 -0.75004,-0.75005 -0.70593,-0.61768 -0.48533,-1.36773 -0.52944,-1.2795 -0.39708,-0.97065 -1.19126,-0.52944 h -1.01477 l -0.48532,-0.17648 -0.44121,-1.10301 -0.4412,-0.30885 -0.48532,0.26473 -1.58834,3.22079 1.10301,2.20602 -0.0441,0.61769 -2.42662,2.1619 -0.75005,4.41204 -0.88241,0.48532 -0.79417,0.22061 -0.70592,3.83847 -10.809509,7.01515 z"
       id="path736" />
  </g>
</svg>
