<?xml version="1.0" encoding="UTF-8" standalone="no"?>
<!-- Created with Inkscape (http://www.inkscape.org/) -->

<svg
   width="210mm"
   height="297mm"
   viewBox="0 0 210 297"
   version="1.1"
   id="svg361"
   inkscape:version="1.2.1 (9c6d41e410, 2022-07-14)"
   sodipodi:docname="рисунок17.svg"
   xmlns:inkscape="http://www.inkscape.org/namespaces/inkscape"
   xmlns:sodipodi="http://sodipodi.sourceforge.net/DTD/sodipodi-0.dtd"
   xmlns="http://www.w3.org/2000/svg"
   xmlns:svg="http://www.w3.org/2000/svg">
  <sodipodi:namedview
     id="namedview363"
     pagecolor="#505050"
     bordercolor="#eeeeee"
     borderopacity="1"
     inkscape:showpageshadow="0"
     inkscape:pageopacity="0"
     inkscape:pagecheckerboard="0"
     inkscape:deskcolor="#505050"
     inkscape:document-units="mm"
     showgrid="false"
     inkscape:zoom="0.73851712"
     inkscape:cx="153.68635"
     inkscape:cy="562.6139"
     inkscape:window-width="1488"
     inkscape:window-height="1032"
     inkscape:window-x="134"
     inkscape:window-y="768"
     inkscape:window-maximized="0"
     inkscape:current-layer="layer1" />
  <defs
     id="defs358" />
  <g
     inkscape:label="Слой 1"
     inkscape:groupmode="layer"
     id="layer1">
    <path
       style="fill:#ffffff;stroke-width:0.565;stroke:#2dbd39;stroke-opacity:1;stroke-dasharray:none"
       d="m 77.333909,121.75309 -0.04412,0.88241 -0.661805,0.35296 -0.397084,0.35297 -0.220601,0.75004 0.705927,0.70593 0.441203,0.0882 -0.308843,0.88241 -0.08824,0.70593 0.529444,0.26472 1.191252,0.2206 0.88241,0.39708 1.014769,0.83829 0.926529,0.44121 0.705927,0.4412 0.529444,0.57357 0.132363,1.05889 -0.794168,0.57356 -1.235371,0.66181 -0.397084,0.70593 -0.132363,1.32361 -0.04412,1.63246 -0.04412,1.50009 0.308843,1.89718 0.573564,0.26472 0.352965,0.52944 0.617685,0.70593 0.838287,0.57357 0.397084,1.05889 1.235372,1.14713 2.11778,0.48532 0.352965,-0.83828 0.617686,-1.05889 0.882409,-0.39709 0.661805,0.52945 0.926528,0.0441 0.661808,0.83829 h 1.323612 l 0.485326,-0.88241 0.485325,-0.92653 -0.08824,-1.10301 0.176482,-0.88241 0.573564,-0.30885 v -0.83828 l 0.97065,-0.13236 0.308843,0.75004 0.08824,0.30885 0.08824,0.35296 0.485326,0.2206 h 0.220601 l 0.132361,0.52945 -0.08824,0.70592 0.264723,0.75005 0.661805,0.26472 h 0.83829 l 0.529444,-0.2206 0.970651,-0.30884 0.970648,-0.39708 0.83829,-0.17649 0.52944,-0.57356 0.88241,-1.01477 0.83829,-0.75005 0.61769,-0.4412 0.48532,-0.2206 0.0882,-1.19126 0.66181,-0.57356 1.32361,-0.88241 0.97065,-0.26472 1.14713,0.2206 0.17648,1.05889 0.66181,1.41185 0.30884,0.92653 -0.57356,0.92653 -0.92653,0.39708 -0.35297,0.70593 -0.13236,0.92653 0.0441,0.92653 0.52945,0.83829 0.35296,0.61768 h 0.83829 l 1.27949,-0.39708 0.75005,-0.66181 0.97065,-1.10301 0.70592,-0.57356 0.22061,-0.0882 0.57356,0.2206 0.0882,0.48532 0.48533,0.66181 0.6618,0.35296 1.14714,0.44121 1.23537,0.61768 1.01477,0.48533 0.92652,-0.0882 0.26473,-1.10301 -0.13236,-1.58834 0.13236,-1.63246 -0.30884,-1.36773 -0.39709,-1.89718 -1.23537,-2.86783 -0.75005,-0.48532 -1.05889,-0.4412 -0.57356,-0.26473 -0.13236,-0.75004 0.6618,-0.70593 0.48533,-1.32361 -0.30885,-0.48533 -0.92653,-0.4412 -0.70592,0.39708 -0.52945,0.61769 h -0.83829 l -0.52944,-0.35297 -0.61769,0.13237 -0.52944,0.48532 -0.57357,-0.39708 -0.70592,-0.75005 0.61768,-0.57357 -0.48532,-0.83829 -0.30885,-0.4412 v -0.0882 l 0.79417,-0.57357 v -0.39708 l -0.30884,-0.75015 -0.57357,-0.30884 -1.36773,0.17648 h -1.27949 l -1.32361,1.23537 -1.10302,-0.0441 h -1.01477 l -0.92652,0.97065 -1.98542,-1.54421 -1.58834,1.32361 -0.970648,-0.66181 0.04412,-1.32361 h -1.14713 l -0.705927,0.30884 -0.705927,0.66181 -1.235371,0.0441 -1.411854,-0.0441 -1.235374,0.26472 -1.455973,0.35297 -0.705927,-0.66181 -1.323612,0.0882 -1.058892,0.13236 -0.926528,0.26473 -0.705927,0.0882 -0.573566,-0.39709 -0.661805,-0.35296 -0.397084,-0.13236 -0.397084,0.57356 -1.279494,0.0441 -0.308842,-0.26472 -0.794168,-0.66181 -0.661805,-0.6618 -0.220602,-0.26472 -0.176482,-0.39709 -0.88241,-0.30884 -0.926528,-0.57357 -0.661808,-0.70592 z"
       id="path1096" />
  </g>
</svg>
