<?xml version="1.0" encoding="UTF-8" standalone="no"?>
<!-- Created with Inkscape (http://www.inkscape.org/) -->

<svg
   width="210mm"
   height="297mm"
   viewBox="0 0 210 297"
   version="1.1"
   id="svg361"
   inkscape:version="1.2.1 (9c6d41e410, 2022-07-14)"
   sodipodi:docname="рисунок16.svg"
   xmlns:inkscape="http://www.inkscape.org/namespaces/inkscape"
   xmlns:sodipodi="http://sodipodi.sourceforge.net/DTD/sodipodi-0.dtd"
   xmlns="http://www.w3.org/2000/svg"
   xmlns:svg="http://www.w3.org/2000/svg">
  <sodipodi:namedview
     id="namedview363"
     pagecolor="#505050"
     bordercolor="#eeeeee"
     borderopacity="1"
     inkscape:showpageshadow="0"
     inkscape:pageopacity="0"
     inkscape:pagecheckerboard="0"
     inkscape:deskcolor="#505050"
     inkscape:document-units="mm"
     showgrid="false"
     inkscape:zoom="0.73851712"
     inkscape:cx="153.68635"
     inkscape:cy="562.6139"
     inkscape:window-width="1488"
     inkscape:window-height="1032"
     inkscape:window-x="134"
     inkscape:window-y="768"
     inkscape:window-maximized="0"
     inkscape:current-layer="layer1" />
  <defs
     id="defs358" />
  <g
     inkscape:label="Слой 1"
     inkscape:groupmode="layer"
     id="layer1">
    <path
       style="fill:#ffffff;stroke-width:0.565;stroke:#2dbd39;stroke-opacity:1;stroke-dasharray:none"
       d="m 84.356082,99.722698 1.367734,-0.08824 1.455973,-0.838288 2.558987,-0.838287 2.823707,-0.132363 -0.04412,0.882409 -0.617685,0.308843 -0.573564,0.617686 0.264721,0.573562 0.750049,0.75005 -0.441206,0.88241 0.573566,0.97065 1.01477,-0.0882 0.926528,0.48532 1.500095,0.88241 0.838287,0.88241 v -0.13236 l 0.529448,0.52944 0.397084,0.75005 0.08824,0.70593 -0.485322,0.39708 -1.01477,0.48532 -0.441206,0.61769 -0.397084,0.83829 v 1.41185 l -0.08824,2.25015 0.220604,1.50009 0.705927,0.88241 0.220602,0.4412 0.441203,0.66181 0.705927,0.35296 0.441206,0.75005 0.308842,0.83829 0.970648,1.05889 0.750047,0.13236 1.0589,0.0441 0.30884,0.39708 0.13236,0.97065 0.70593,0.97065 0.0882,1.10301 -0.17648,0.30885 -0.57357,0.52944 0.17648,0.92653 0.0882,0.92653 0.2206,0.39708 6.39746,0.17649 -0.26472,1.05888 0.13237,1.58834 -0.70593,1.05889 -0.79417,1.36773 0.48533,0.70593 0.17648,0.61769 -0.26472,0.6618 -0.30885,0.48533 0.39709,0.97065 -1.10301,0.97065 -0.79417,-1.14714 -1.76482,0.0441 -0.52944,-0.39709 -0.83829,-0.13236 -0.39709,0.48532 0.22061,0.83829 v 0.61769 l -1.5001,0.13236 -4.103202,4.19144 0.04412,1.05889 0.04412,0.83829 -0.794168,-0.39709 -0.308843,-0.48532 -0.705927,-0.48532 -0.97065,-0.39709 2.911948,-3.61787 -1.720696,-0.83829 -0.176483,-1.19125 -0.308842,-0.70593 -0.352965,-0.75005 0.441206,-0.83828 0.352962,-0.75005 -0.04412,-0.83829 -0.573567,-0.92653 -1.058889,-0.52944 -1.279493,-0.48533 -0.926528,-0.13236 -1.191252,-0.2206 -1.323613,-0.35297 -0.838287,-1.14713 -2.294263,-2.77958 0.441203,-2.20603 -3.264911,-2.42662 -0.617685,-1.10301 0.485325,-0.70593 1.455973,-1.45597 0.705927,-1.7207 0.08824,-0.79416 -1.676577,-3.00019 -0.04412,-1.05889 0.661805,-0.44121 0.88241,0.0882 0.08824,-0.79417 -0.220602,-0.48532 -1.103011,-0.97065 -0.352964,-0.88241 0.264723,-1.85305 1.01477,-1.2795 0.617685,-1.45597 v -0.97065 z"
       id="path1067" />
  </g>
</svg>
