<?xml version="1.0" encoding="UTF-8" standalone="no"?>
<!-- Created with Inkscape (http://www.inkscape.org/) -->

<svg
   width="210mm"
   height="297mm"
   viewBox="0 0 210 297"
   version="1.1"
   id="svg361"
   inkscape:version="1.2.1 (9c6d41e410, 2022-07-14)"
   sodipodi:docname="рисунок8.svg"
   xmlns:inkscape="http://www.inkscape.org/namespaces/inkscape"
   xmlns:sodipodi="http://sodipodi.sourceforge.net/DTD/sodipodi-0.dtd"
   xmlns="http://www.w3.org/2000/svg"
   xmlns:svg="http://www.w3.org/2000/svg">
  <sodipodi:namedview
     id="namedview363"
     pagecolor="#505050"
     bordercolor="#eeeeee"
     borderopacity="1"
     inkscape:showpageshadow="0"
     inkscape:pageopacity="0"
     inkscape:pagecheckerboard="0"
     inkscape:deskcolor="#505050"
     inkscape:document-units="mm"
     showgrid="false"
     inkscape:zoom="0.73851712"
     inkscape:cx="153.68635"
     inkscape:cy="562.6139"
     inkscape:window-width="1488"
     inkscape:window-height="1032"
     inkscape:window-x="158"
     inkscape:window-y="768"
     inkscape:window-maximized="0"
     inkscape:current-layer="layer1" />
  <defs
     id="defs358" />
  <g
     inkscape:label="Слой 1"
     inkscape:groupmode="layer"
     id="layer1">
    <path
       style="fill:#ffffff;stroke-width:0.565;fill-opacity:1;stroke:#2dbd39;stroke-opacity:1;stroke-dasharray:none"
       d="m 97.055743,170.29629 v -0.2206 l 0.26472,-6.97103 -1.45597,-1.7207 -0.0441,-0.0882 0.26472,-0.48532 1.41185,-0.75005 1.63246,-4.14732 -0.48532,-1.32361 -0.39709,-1.05889 -0.79417,-0.44121 -0.13236,-1.41185 0.83829,-0.48533 1.05889,-0.2206 1.279487,0.26472 0.57357,0.48533 -0.0441,1.63245 1.10301,0.35297 0.48532,-0.0441 1.63246,-13.41261 11.03011,-7.10339 0.79416,-4.05908 1.58834,-0.48532 0.57357,-4.23557 2.86782,-2.95607 0.0441,-0.8824 0.39709,-0.88241 1.19125,-0.75005 1.41185,0.0441 h 1.5001 l -0.0441,-0.75005 -0.70593,-0.70592 -0.48532,-0.22061 -0.83829,0.13237 -0.79417,-0.26473 -0.39708,-0.79416 -0.57357,-0.79417 -0.61769,-0.66181 -1.05888,0.17648 -0.57357,0.57357 -0.70593,1.72069 -2.29426,1.14714 -0.79417,0.92653 -0.17648,1.14713 0.0441,0.88241 -4.19144,6.57394 -1.27949,0.52944 -1.98542,0.2206 -1.9413,-0.26472 -1.85306,-0.52944 -1.10301,-0.48533 -0.48532,-0.70592 -1.01477,-0.57357 -1.7207,0.26472 -0.661807,1.14713 -0.57356,1.63246 -0.44121,1.32361 0.0441,3.92672 -0.52944,0.88241 -0.61769,0.35296 -1.32361,0.0441 -0.75005,-0.17648 -1.10301,-0.61768 -1.41185,-0.57357 -0.75005,-0.79417 -0.13236,-0.79416 -0.52945,-0.66181 -0.0441,-0.0882 h -0.70592 l -0.48533,0.61768 -0.79417,0.26473 -0.4412,0.13236 h -1.36773 l -0.75005,0.48532 -1.41185,0.52945 -3.39728,0.0882 -0.61768,-0.66181 -0.44121,-0.6618 -0.4412,-0.70593 0.30884,-0.97065 0.44121,-0.57357 0.39708,-0.57356 0.0441,-1.05889 -0.26472,-0.66181 -0.57357,-0.48532 -1.05889,-0.30885 -0.75005,-0.0882 -0.57356,0.57357 -0.0882,0.57357 -0.17648,0.4412 -0.75005,0.83829 -0.61769,0.48532 -0.48532,0.44121 -1.14713,0.4412 -1.05889,0.0441 h -0.66181 l -0.61768,0.26472 -0.57357,0.48533 -0.13236,0.57356 0.4412,0.48533 0.13236,0.35296 0.0441,1.76482 -0.70592,0.48532 -0.70593,0.35297 -0.97065,0.4412 -0.30884,0.61769 0.0882,1.10301 0.2206,0.35296 0.79417,0.30885 3.00019,0.26472 1.19125,4.23556 -1.23537,0.97065 0.97065,1.10301 -2.33839,14.51562 3.52964,0.4412 -0.35297,3.97084 3.39728,0.52945 -0.26473,3.35315 13.10377,1.89718 z"
       id="path707" />
  </g>
</svg>
